<svg width="112" height="92" viewBox="0 0 112 92" fill="none" xmlns="http://www.w3.org/2000/svg">
<path d="M5.79834e-06 0C29.055 0 28.1778 23.755 55.6978 23.755C55.6978 28.8052 55.6978 41.9486 55.6978 45.9702C19.7354 45.9702 20.2836 22.2239 1.86737e-05 22.2239C6.17105e-05 14.8355 -2.2034e-05 8.22998 5.79834e-06 0Z" fill="#FFFFFF"/>
<path d="M55.6982 1.53809C84.7532 1.53809 83.8761 25.293 111.396 25.293C111.396 30.3433 111.396 43.4867 111.396 47.5083C75.4337 47.5083 75.9819 23.762 55.6983 23.762C55.6983 16.3736 55.6982 9.76807 55.6982 1.53809Z" fill="#FFFFFF"/>
<path d="M55.6982 45.9697C84.7532 45.9697 83.8761 69.7247 111.396 69.7247C111.396 74.7749 111.396 87.9184 111.396 91.94C75.4337 91.94 75.9819 68.1937 55.6983 68.1937C55.6983 60.8052 55.6982 54.1997 55.6982 45.9697Z" fill="#FFFFFF"/>
<path d="M5.79834e-06 44.4307C29.055 44.4307 28.1778 68.1856 55.6978 68.1856C55.6978 73.2359 55.6978 86.3793 55.6978 90.4009C19.7354 90.4009 20.2836 66.6546 1.86737e-05 66.6546C6.17105e-05 59.2662 -2.2034e-05 52.6606 5.79834e-06 44.4307Z" fill="#FFFFFF"/>
</svg>
