<svg width="21" height="18" viewBox="0 0 21 18" fill="none" xmlns="http://www.w3.org/2000/svg">
<path d="M1.09309e-06 0.360352C5.47736 0.360352 5.31201 4.82492 10.5 4.82492C10.5 5.77408 10.5 8.24428 10.5 9.00012C3.72047 9.00012 3.82382 4.53718 3.52032e-06 4.53718C1.16335e-05 3.14858 -4.15379e-06 1.90712 1.09309e-06 0.360352Z" fill="#1262FD"/>
<path d="M10.5 0.649902C15.9774 0.649902 15.812 5.11447 21 5.11447C21 6.06363 21 8.53384 21 9.28967C14.2205 9.28967 14.3238 4.82673 10.5 4.82673C10.5 3.43813 10.5 2.19667 10.5 0.649902Z" fill="#1262FD"/>
<path d="M10.5 9C15.9774 9 15.812 13.4646 21 13.4646C21 14.4137 21 16.8839 21 17.6398C14.2205 17.6398 14.3238 13.1768 10.5 13.1768C10.5 11.7882 10.5 10.5468 10.5 9Z" fill="#1262FD"/>
<path d="M1.09309e-06 8.71069C5.47736 8.71069 5.31201 13.1753 10.5 13.1753C10.5 14.1244 10.5 16.5946 10.5 17.3505C3.72047 17.3505 3.82382 12.8875 3.52032e-06 12.8875C1.16335e-05 11.4989 -4.15379e-06 10.2575 1.09309e-06 8.71069Z" fill="#1262FD"/>
</svg>
