<svg width="24" height="24" viewBox="0 0 24 24" fill="none" xmlns="http://www.w3.org/2000/svg">
<path fill-rule="evenodd" clip-rule="evenodd" d="M10.9979 1.3096L7.00013 6.49938L11.0065 12.1083L12.0001 13.4994L12.9937 12.1083L17.0001 6.49938L13.0083 1.3099L12.506 0.656917L12.0037 0.00390625L11.5008 0.656721L10.9979 1.3096ZM12.0025 2.61559L8.99861 6.51515L12.0001 10.7173L15.0019 6.51484L12.0025 2.61559ZM3.63524 11.9329L7.69449 9.90067C8.07776 9.70879 8.11901 9.37387 7.78663 9.15261C7.45425 8.93135 6.8741 8.90753 6.49084 9.09941L2.28257 11.2063C1.5578 11.5691 1.51833 12.2107 2.1967 12.6024L4.91856 14.1737L2.22242 15.6185C1.53547 15.9866 1.51537 16.6104 2.17813 16.993L10.9563 22.0607C11.602 22.4334 12.6489 22.4334 13.2946 22.0607L22.0687 16.9954C22.7349 16.6108 22.7106 15.983 22.0153 15.616L19.3088 14.1873L22.0504 12.6045C22.7319 12.2111 22.6885 11.566 21.9562 11.2043L17.69 9.0971C17.3045 8.9067 16.7246 8.93276 16.3948 9.1553C16.065 9.37784 16.1101 9.71259 16.4956 9.90299L20.611 11.9356L12.1255 16.8343L3.63524 11.9329ZM18.0084 14.938L13.2946 17.6593C12.6489 18.032 11.602 18.032 10.9563 17.6593L6.21853 14.9242L3.61203 16.3209L12.1255 21.2357L20.6338 16.3239L18.0084 14.938Z" fill="white"/>
</svg>
