<svg width="279" height="280" viewBox="0 0 279 280" fill="none" xmlns="http://www.w3.org/2000/svg">
<circle cx="139.426" cy="140.573" r="119.066" stroke="#8C8C8C" stroke-width="4" stroke-dasharray="8 8"/>
<path d="M140.574 242.131L151.703 245.747L158.582 255.214V266.916L151.703 276.384L140.574 280L129.444 276.384L122.566 266.916V255.214L129.444 245.747L140.574 242.131Z" fill="#80ABFF"/>
<path d="M140.574 0L151.703 3.61615L158.582 13.0834V24.7855L151.703 34.2527L140.574 37.8689L129.444 34.2527L122.566 24.7855V13.0834L129.444 3.61615L140.574 0Z" fill="#80ABFF"/>
<path d="M18.9344 121.639L30.0638 125.255L36.9421 134.722V146.424L30.0638 155.891L18.9344 159.508L7.80505 155.891L0.926716 146.424V134.722L7.80505 125.255L18.9344 121.639Z" fill="#80ABFF"/>
<path d="M259.918 121.639L271.047 125.255L277.926 134.722V146.424L271.047 155.891L259.918 159.508L248.789 155.891L241.91 146.424V134.722L248.789 125.255L259.918 121.639Z" fill="#80ABFF"/>
<path d="M235.687 71.7087L247.217 69.7145L257.718 74.8788L263.178 85.2291L261.512 96.812L253.355 105.203L241.824 107.197L231.323 102.033L225.863 91.6826L227.53 80.0998L235.687 71.7087Z" fill="#80ABFF"/>
<path d="M25.9275 176.375L37.4584 174.38L47.9593 179.545L53.4192 189.895L51.7526 201.478L43.596 209.869L32.0651 211.863L21.5642 206.699L16.1043 196.349L17.7709 184.766L25.9275 176.375Z" fill="#80ABFF"/>
<path d="M70.7781 237.086L79.1578 228.918L90.7383 227.235L101.096 232.681L106.275 243.174L104.297 254.708L95.9173 262.876L84.3369 264.559L73.9789 259.114L68.7999 248.62L70.7781 237.086Z" fill="#80ABFF"/>
<path d="M175.204 25.9397L183.584 17.7715L195.165 16.0887L205.522 21.5341L210.701 32.0278L208.723 43.5615L200.344 51.7298L188.763 53.4126L178.405 47.9671L173.226 37.4734L175.204 25.9397Z" fill="#80ABFF"/>
<path d="M176.205 237.162L184.513 228.921L196.078 227.137L206.483 232.492L211.754 242.94L209.877 254.49L201.569 262.731L190.004 264.515L179.598 259.161L174.328 248.713L176.205 237.162Z" fill="#80ABFF"/>
<path d="M69.4837 26.0157L77.7917 17.7745L89.357 15.9905L99.7622 21.3451L105.033 31.7931L103.156 43.3437L94.8476 51.5849L83.2822 53.3689L72.8771 48.0142L67.6065 37.5662L69.4837 26.0157Z" fill="#80ABFF"/>
<path d="M16.462 80.0687L24.6546 71.7129L36.194 69.7683L46.6726 74.9778L52.0879 85.3515L50.3714 96.9271L42.1788 105.283L30.6394 107.228L20.1608 102.018L14.7455 91.6443L16.462 80.0687Z" fill="#80ABFF"/>
<path d="M228.757 185.643L236.95 177.287L248.489 175.343L258.968 180.552L264.383 190.926L262.666 202.501L254.474 210.857L242.934 212.802L232.456 207.592L227.041 197.219L228.757 185.643Z" fill="#80ABFF"/>
</svg>
