<svg width="23" height="14" viewBox="0 0 23 14" fill="none" xmlns="http://www.w3.org/2000/svg">
<path fill-rule="evenodd" clip-rule="evenodd" d="M11.179 11.8294C9.99493 12.8275 8.45902 13.43 6.78069 13.43C3.03582 13.43 0 10.4303 0 6.72997C0 3.02966 3.03582 0.0299683 6.78069 0.0299683C8.45902 0.0299683 9.99493 0.632466 11.179 1.63051C12.363 0.632466 13.8989 0.0299683 15.5773 0.0299683C19.3221 0.0299683 22.358 3.02966 22.358 6.72997C22.358 10.4303 19.3221 13.43 15.5773 13.43C13.8989 13.43 12.363 12.8275 11.179 11.8294Z" fill="#ED0006"/>
<path fill-rule="evenodd" clip-rule="evenodd" d="M11.179 11.8294C12.6369 10.6005 13.5614 8.77192 13.5614 6.72997C13.5614 4.68801 12.6369 2.85941 11.179 1.63051C12.363 0.632465 13.8989 0.0299683 15.5772 0.0299683C19.3221 0.0299683 22.3579 3.02966 22.3579 6.72997C22.3579 10.4303 19.3221 13.43 15.5772 13.43C13.8989 13.43 12.363 12.8275 11.179 11.8294Z" fill="#F9A000"/>
<path fill-rule="evenodd" clip-rule="evenodd" d="M11.179 11.8294C12.6369 10.6005 13.5614 8.77192 13.5614 6.72998C13.5614 4.68803 12.6369 2.85944 11.179 1.63054C9.72109 2.85944 8.79663 4.68803 8.79663 6.72998C8.79663 8.77192 9.72109 10.6005 11.179 11.8294Z" fill="#FF5E00"/>
</svg>
