<svg width="21" height="19" viewBox="0 0 21 19" fill="none" xmlns="http://www.w3.org/2000/svg">
<path d="M19.9986 9.5C19.9986 14.1944 16.1931 18 11.4986 18C10.4219 18 9.39185 17.7998 8.4438 17.4345C8.27047 17.3678 8.1838 17.3344 8.11488 17.3185C8.04709 17.3029 7.99802 17.2963 7.92851 17.2937C7.85783 17.291 7.78029 17.299 7.62521 17.315L2.50419 17.8444C2.01595 17.8948 1.77183 17.9201 1.62782 17.8322C1.5024 17.7557 1.41697 17.6279 1.39423 17.4828C1.36812 17.3161 1.48477 17.1002 1.71808 16.6684L3.35374 13.6408C3.48844 13.3915 3.5558 13.2668 3.5863 13.1469C3.61643 13.0286 3.62371 12.9432 3.61408 12.8214C3.60432 12.6981 3.55022 12.5376 3.44202 12.2166C3.1545 11.3636 2.99865 10.45 2.99865 9.5C2.99865 4.80558 6.80423 1 11.4986 1C16.1931 1 19.9986 4.80558 19.9986 9.5Z" stroke="#344054" stroke-width="2" stroke-linecap="round" stroke-linejoin="round"/>
<path fill-rule="evenodd" clip-rule="evenodd" d="M11.4956 6.94925C10.5959 5.9104 9.09553 5.63095 7.96826 6.58223C6.84099 7.5335 6.68228 9.12399 7.56754 10.2491C8.11598 10.9461 9.49254 12.2191 10.4606 13.087C10.8162 13.4057 10.994 13.5651 11.2074 13.6293C11.3904 13.6844 11.6007 13.6844 11.7838 13.6293C11.9971 13.5651 12.1749 13.4057 12.5305 13.087C13.4986 12.2191 14.8751 10.9461 15.4236 10.2491C16.3088 9.12399 16.1695 7.5235 15.0229 6.58223C13.8762 5.64096 12.3953 5.9104 11.4956 6.94925Z" stroke="#344054" stroke-width="2" stroke-linecap="round" stroke-linejoin="round"/>
</svg>
