<svg width="21" height="19" viewBox="0 0 21 19" fill="none" xmlns="http://www.w3.org/2000/svg">
<path d="M7.99865 12C7.99865 12 9.31115 13.5 11.4986 13.5C13.6861 13.5 14.9986 12 14.9986 12M14.2486 7H14.2586M8.74865 7H8.75865M11.4986 18C16.1931 18 19.9986 14.1944 19.9986 9.5C19.9986 4.80558 16.1931 1 11.4986 1C6.80423 1 2.99865 4.80558 2.99865 9.5C2.99865 10.45 3.1545 11.3636 3.44202 12.2166C3.55022 12.5376 3.60432 12.6981 3.61408 12.8214C3.62371 12.9432 3.61643 13.0286 3.5863 13.1469C3.5558 13.2668 3.48844 13.3915 3.35374 13.6408L1.71808 16.6684C1.48477 17.1002 1.36812 17.3161 1.39423 17.4828C1.41697 17.6279 1.5024 17.7557 1.62782 17.8322C1.77183 17.9201 2.01595 17.8948 2.50419 17.8444L7.62521 17.315C7.78029 17.299 7.85783 17.291 7.92851 17.2937C7.99802 17.2963 8.04709 17.3029 8.11488 17.3185C8.1838 17.3344 8.27047 17.3678 8.4438 17.4345C9.39185 17.7998 10.4219 18 11.4986 18ZM14.7486 7C14.7486 7.27614 14.5248 7.5 14.2486 7.5C13.9725 7.5 13.7486 7.27614 13.7486 7C13.7486 6.72386 13.9725 6.5 14.2486 6.5C14.5248 6.5 14.7486 6.72386 14.7486 7ZM9.24865 7C9.24865 7.27614 9.02479 7.5 8.74865 7.5C8.47251 7.5 8.24865 7.27614 8.24865 7C8.24865 6.72386 8.47251 6.5 8.74865 6.5C9.02479 6.5 9.24865 6.72386 9.24865 7Z" stroke="#344054" stroke-width="2" stroke-linecap="round" stroke-linejoin="round"/>
</svg>
