<svg width="500" height="500" viewBox="0 0 500 500" fill="none" xmlns="http://www.w3.org/2000/svg">
<rect width="500" height="500" fill="white"/>
<path d="M247.5 190.417C274.167 191.667 281.042 214.375 281.458 225H318.75C317.083 183.75 287.708 158.542 246.875 158.542C200.833 158.542 166.667 187.5 166.667 252.917C166.667 293.333 186.042 341.25 246.667 341.25C292.917 341.25 317.708 306.875 318.333 279.792H281.042C280.417 292.083 271.667 308.542 247.083 309.792C219.792 308.958 208.333 287.708 208.333 252.917C208.333 192.708 235 190.833 247.5 190.417ZM250 41.6667C135 41.6667 41.6665 135 41.6665 250C41.6665 365 135 458.333 250 458.333C365 458.333 458.333 365 458.333 250C458.333 135 365 41.6667 250 41.6667ZM250 416.667C158.125 416.667 83.3332 341.875 83.3332 250C83.3332 158.125 158.125 83.3334 250 83.3334C341.875 83.3334 416.667 158.125 416.667 250C416.667 341.875 341.875 416.667 250 416.667Z" fill="black"/>
</svg>
