<svg width="1440" height="482" viewBox="0 0 1440 482" fill="none" xmlns="http://www.w3.org/2000/svg">
<rect width="1440" height="800" fill="white"/>
<g clip-path="url(#clip0_4_12)">
<rect width="1440" height="800" fill="white"/>
<rect width="720" height="720" fill="url(#paint0_linear_4_12)"/>
<rect x="720" y="-7" width="720" height="720" fill="url(#paint1_linear_4_12)"/>
<g filter="url(#filter0_f_4_12)">
<path d="M1199.48 -798C1232.64 -672.435 1277.27 -318.937 1162.48 -154.196C1018.99 51.7297 848 313.5 848 547.5" stroke="url(#paint2_radial_4_12)" stroke-width="188"/>
<path d="M1199.48 -798C1232.64 -672.435 1277.27 -318.937 1162.48 -154.196C1018.99 51.7297 848 313.5 848 547.5" stroke="url(#paint3_linear_4_12)" stroke-width="188"/>
</g>
<g filter="url(#filter1_f_4_12)">
<path d="M1543.48 -798C1576.64 -672.435 1621.27 -318.937 1506.48 -154.196C1362.99 51.7297 1192 313.5 1192 547.5" stroke="url(#paint4_linear_4_12)" stroke-width="188"/>
</g>
<g filter="url(#filter2_f_4_12)">
<path d="M434.503 -44.8972C383.06 403.159 151.009 412.25 124.318 644.723" stroke="url(#paint5_linear_4_12)" stroke-width="188"/>
</g>
<g filter="url(#filter3_f_4_12)">
<path d="M0 135C451 135 486.5 364.5 720.5 364.5" stroke="url(#paint6_linear_4_12)" stroke-width="188"/>
</g>
</g>
<defs>
<filter id="filter0_f_4_12" x="694" y="-882.005" width="696.501" height="1489.5" filterUnits="userSpaceOnUse" color-interpolation-filters="sRGB">
<feFlood flood-opacity="0" result="BackgroundImageFix"/>
<feBlend mode="normal" in="SourceGraphic" in2="BackgroundImageFix" result="shape"/>
<feGaussianBlur stdDeviation="30" result="effect1_foregroundBlur_4_12"/>
</filter>
<filter id="filter1_f_4_12" x="1038" y="-882.005" width="696.501" height="1489.5" filterUnits="userSpaceOnUse" color-interpolation-filters="sRGB">
<feFlood flood-opacity="0" result="BackgroundImageFix"/>
<feBlend mode="normal" in="SourceGraphic" in2="BackgroundImageFix" result="shape"/>
<feGaussianBlur stdDeviation="30" result="effect1_foregroundBlur_4_12"/>
</filter>
<filter id="filter2_f_4_12" x="-29.0684" y="-115.619" width="616.958" height="831.064" filterUnits="userSpaceOnUse" color-interpolation-filters="sRGB">
<feFlood flood-opacity="0" result="BackgroundImageFix"/>
<feBlend mode="normal" in="SourceGraphic" in2="BackgroundImageFix" result="shape"/>
<feGaussianBlur stdDeviation="30" result="effect1_foregroundBlur_4_12"/>
</filter>
<filter id="filter3_f_4_12" x="-60" y="-19" width="840.5" height="537.5" filterUnits="userSpaceOnUse" color-interpolation-filters="sRGB">
<feFlood flood-opacity="0" result="BackgroundImageFix"/>
<feBlend mode="normal" in="SourceGraphic" in2="BackgroundImageFix" result="shape"/>
<feGaussianBlur stdDeviation="30" result="effect1_foregroundBlur_4_12"/>
</filter>
<linearGradient id="paint0_linear_4_12" x1="-139" y1="956.5" x2="376.343" y2="-448.826" gradientUnits="userSpaceOnUse">
<stop stop-color="#E9E9E9"/>
<stop offset="1" stop-color="#C9C9C9" stop-opacity="0.16"/>
</linearGradient>
<linearGradient id="paint1_linear_4_12" x1="581" y1="949.5" x2="1096.34" y2="-455.826" gradientUnits="userSpaceOnUse">
<stop stop-color="white"/>
<stop offset="1" stop-color="#D8D8D8" stop-opacity="0.16"/>
</linearGradient>
<radialGradient id="paint2_radial_4_12" cx="0" cy="0" r="1" gradientUnits="userSpaceOnUse" gradientTransform="translate(908.5 318.5) rotate(-172.976) scale(564.235 1954.13)">
<stop stop-color="#F0703A"/>
<stop offset="1" stop-color="#FF7840" stop-opacity="0"/>
</radialGradient>
<linearGradient id="paint3_linear_4_12" x1="592" y1="548" x2="1284" y2="-178.5" gradientUnits="userSpaceOnUse">
<stop stop-color="white"/>
<stop offset="1" stop-color="white" stop-opacity="0"/>
</linearGradient>
<linearGradient id="paint4_linear_4_12" x1="1938.5" y1="-89.5" x2="694.5" y2="299" gradientUnits="userSpaceOnUse">
<stop stop-color="#FEA47E"/>
<stop offset="0.439884" stop-color="#F36F38"/>
<stop offset="1" stop-color="white" stop-opacity="0"/>
</linearGradient>
<linearGradient id="paint5_linear_4_12" x1="304.817" y1="-504.735" x2="100.159" y2="972.579" gradientUnits="userSpaceOnUse">
<stop stop-color="#FF5C00"/>
<stop offset="0.588542" stop-color="#FFBC96" stop-opacity="0.411458"/>
<stop offset="1" stop-color="white" stop-opacity="0"/>
</linearGradient>
<linearGradient id="paint6_linear_4_12" x1="698.5" y1="755.5" x2="-276" y2="-397" gradientUnits="userSpaceOnUse">
<stop stop-color="#FF5C00"/>
<stop offset="1" stop-color="white" stop-opacity="0"/>
</linearGradient>
<clipPath id="clip0_4_12">
<rect width="1440" height="800" fill="white"/>
</clipPath>
</defs>
</svg>
