<svg width="20" height="16" viewBox="0 0 20 16" fill="none" xmlns="http://www.w3.org/2000/svg">
<path d="M1.0179e-06 0C5.10061 0 4.94663 4.13397 9.77778 4.13397C9.77778 5.01285 9.77778 7.30014 9.77778 8C3.46457 8 3.56081 3.86754 3.27818e-06 3.86754C1.08333e-05 2.58176 -3.86808e-06 1.43223 1.0179e-06 0Z" fill="black"/>
<path d="M9.77771 0.268066C14.8783 0.268066 14.7243 4.40204 19.5555 4.40204C19.5555 5.28091 19.5555 7.5682 19.5555 8.26807C13.2423 8.26807 13.3385 4.1356 9.77771 4.1356C9.77772 2.84983 9.77771 1.70029 9.77771 0.268066Z" fill="black"/>
<path d="M9.77771 8C14.8783 8 14.7243 12.134 19.5555 12.134C19.5555 13.0128 19.5555 15.3001 19.5555 16C13.2423 16 13.3385 11.8675 9.77771 11.8675C9.77772 10.5818 9.77771 9.43223 9.77771 8Z" fill="black"/>
<path d="M1.0179e-06 7.73193C5.10061 7.73193 4.94663 11.8659 9.77778 11.8659C9.77778 12.7448 9.77778 15.0321 9.77778 15.7319C3.46457 15.7319 3.56081 11.5995 3.27818e-06 11.5995C1.08333e-05 10.3137 -3.86808e-06 9.16416 1.0179e-06 7.73193Z" fill="black"/>
</svg>
