<svg width="100" height="100" viewBox="0 0 100 100" fill="none" xmlns="http://www.w3.org/2000/svg">
<path d="M41.1797 22.5973L40.9774 21.9855L40.704 21.1366L40.6975 21.1387L38.0066 13L37.0583 13.3211L39.752 21.4685C34.1323 23.5356 29.2431 27.2586 25.7216 32.1683C22.1989 37.0799 20.216 42.9406 20.0167 48.9909C20.0056 49.3277 20 49.6651 20 50.0029H21.5221C21.5221 43.9211 23.4232 37.9951 26.9534 33.0732C30.4836 28.1513 35.4619 24.4857 41.1757 22.6012L41.175 22.5989L41.1797 22.5973Z" fill="black"/>
<path fill-rule="evenodd" clip-rule="evenodd" d="M50 72.2674C37.8497 72.2674 28 62.2993 28 50.0029C28 37.7066 37.8497 27.7384 50 27.7384C62.1503 27.7384 72 37.7066 72 50.0029C72 62.2993 62.1503 72.2674 50 72.2674ZM50 71.2554C38.402 71.2554 29 61.7403 29 50.0029C29 38.2655 38.402 28.7504 50 28.7504C61.598 28.7504 71 38.2655 71 50.0029C71 61.7403 61.598 71.2554 50 71.2554Z" fill="black"/>
<path d="M73.0466 66.9327C76.5767 62.0107 78.4779 56.0848 78.4779 50.0029H80C80 50.3408 79.9944 50.6781 79.9833 51.0149C79.784 57.0653 77.8011 62.9259 74.2784 67.8375C70.7571 72.7471 65.8681 76.47 60.2486 78.5371L62.9404 86.6789L61.9921 87L59.3031 78.8669C59.3007 78.8677 59.2984 78.8685 59.296 78.8693L58.9972 77.9415L58.8191 77.4027L59.5074 77.1697C64.9346 75.2244 69.6578 71.6574 73.0466 66.9327Z" fill="black"/>
</svg>
