<svg width="17" height="18" viewBox="0 0 17 18" fill="none" xmlns="http://www.w3.org/2000/svg">
<path fill-rule="evenodd" clip-rule="evenodd" d="M0.42207 4.23041C-0.13935 4.53553 -0.141036 5.34084 0.419102 5.64831L2.82026 6.96634L0.422072 8.2697C-0.139348 8.57482 -0.141034 9.38014 0.419104 9.6876L2.82004 11.0055L0.422072 12.3087C-0.139348 12.6139 -0.141034 13.4192 0.419104 13.7267L8.02264 17.9003C8.26532 18.0335 8.55931 18.0332 8.80168 17.8994L16.3639 13.7257C16.9219 13.4178 16.9202 12.6152 16.3609 12.3096L13.9744 11.0055L16.3639 9.6867C16.9219 9.37875 16.9202 8.57618 16.3609 8.27058L13.9742 6.96633L16.3639 5.6474C16.9219 5.33946 16.9202 4.53689 16.3609 4.23128L8.79872 0.0989331C8.55789 -0.0326631 8.26673 -0.032996 8.02561 0.0980484L0.42207 4.23041ZM1.22911 4.94105L8.41108 8.88332L15.554 4.94104L8.41109 1.0378L1.22911 4.94105ZM12.9267 11.5837L8.80168 13.8604C8.55931 13.9942 8.26532 13.9945 8.02264 13.8613L3.87209 11.583L1.22911 13.0194L8.41108 16.9617L15.554 13.0194L12.9267 11.5837ZM1.22911 8.98034L3.87232 7.54382L8.02264 9.82199C8.26532 9.9552 8.55931 9.95486 8.80168 9.82109L12.9265 7.54454L15.554 8.98034L8.41108 12.9226L1.22911 8.98034Z" fill="#FAFAFA"/>
</svg>
