<svg width="1020" height="700" viewBox="0 0 1020 700" fill="none" xmlns="http://www.w3.org/2000/svg">
<g clip-path="url(#clip0_1041_408)">
<rect width="1020" height="700" fill="white"/>
<rect x="83" y="326" width="112" height="47" rx="14" stroke="black" stroke-width="2"/>
<path d="M123.697 354L121.234 345.273H122.935L124.507 351.686H124.588L126.267 345.273H127.814L129.497 351.69H129.574L131.146 345.273H132.847L130.384 354H128.824L127.077 347.876H127.009L125.257 354H123.697ZM135.09 354.132C134.675 354.132 134.302 354.058 133.969 353.911C133.64 353.76 133.379 353.538 133.185 353.246C132.995 352.953 132.9 352.592 132.9 352.163C132.9 351.794 132.968 351.489 133.104 351.247C133.241 351.006 133.427 350.812 133.663 350.668C133.898 350.523 134.164 350.413 134.46 350.339C134.758 350.263 135.066 350.207 135.384 350.173C135.768 350.134 136.079 350.098 136.317 350.067C136.556 350.033 136.729 349.982 136.837 349.913C136.948 349.842 137.004 349.733 137.004 349.585V349.56C137.004 349.239 136.908 348.99 136.718 348.814C136.528 348.638 136.254 348.55 135.896 348.55C135.518 348.55 135.218 348.632 134.996 348.797C134.778 348.962 134.63 349.156 134.553 349.381L133.113 349.176C133.227 348.778 133.414 348.446 133.675 348.179C133.937 347.909 134.256 347.707 134.634 347.574C135.012 347.438 135.43 347.369 135.887 347.369C136.202 347.369 136.516 347.406 136.829 347.48C137.141 347.554 137.427 347.676 137.685 347.847C137.944 348.014 138.151 348.243 138.308 348.533C138.467 348.822 138.546 349.185 138.546 349.619V354H137.063V353.101H137.012C136.918 353.283 136.786 353.453 136.616 353.612C136.448 353.768 136.237 353.895 135.981 353.991C135.728 354.085 135.431 354.132 135.09 354.132ZM135.491 352.999C135.8 352.999 136.069 352.937 136.296 352.815C136.523 352.69 136.698 352.526 136.82 352.321C136.945 352.116 137.008 351.893 137.008 351.652V350.881C136.96 350.92 136.877 350.957 136.761 350.991C136.647 351.026 136.519 351.055 136.377 351.081C136.235 351.107 136.094 351.129 135.955 351.149C135.816 351.169 135.695 351.186 135.593 351.2C135.363 351.232 135.157 351.283 134.975 351.354C134.793 351.425 134.65 351.524 134.545 351.652C134.44 351.777 134.387 351.939 134.387 352.138C134.387 352.422 134.491 352.636 134.698 352.781C134.906 352.926 135.17 352.999 135.491 352.999ZM141.64 345.273V354H140.097V345.273H141.64ZM144.769 345.273V354H143.226V345.273H144.769ZM149.253 354.128C148.597 354.128 148.03 353.991 147.553 353.719C147.078 353.443 146.713 353.054 146.457 352.551C146.202 352.045 146.074 351.45 146.074 350.766C146.074 350.092 146.202 349.501 146.457 348.993C146.716 348.482 147.077 348.084 147.54 347.8C148.003 347.513 148.547 347.369 149.172 347.369C149.575 347.369 149.956 347.435 150.314 347.565C150.675 347.693 150.993 347.892 151.268 348.162C151.547 348.432 151.766 348.776 151.925 349.193C152.084 349.608 152.163 350.102 152.163 350.676V351.149H146.798V350.109H150.685C150.682 349.814 150.618 349.551 150.493 349.321C150.368 349.088 150.193 348.905 149.969 348.771C149.747 348.638 149.489 348.571 149.193 348.571C148.878 348.571 148.601 348.648 148.362 348.801C148.124 348.952 147.938 349.151 147.804 349.398C147.673 349.642 147.607 349.911 147.604 350.203V351.111C147.604 351.491 147.673 351.818 147.812 352.091C147.952 352.361 148.146 352.568 148.396 352.713C148.646 352.855 148.939 352.926 149.274 352.926C149.499 352.926 149.702 352.895 149.884 352.832C150.065 352.767 150.223 352.672 150.357 352.547C150.49 352.422 150.591 352.267 150.659 352.082L152.099 352.244C152.009 352.625 151.835 352.957 151.58 353.241C151.327 353.523 151.003 353.741 150.608 353.898C150.213 354.051 149.761 354.128 149.253 354.128ZM156.737 347.455V348.648H152.974V347.455H156.737ZM153.903 345.886H155.446V352.031C155.446 352.239 155.477 352.398 155.539 352.509C155.605 352.616 155.69 352.69 155.795 352.73C155.9 352.77 156.017 352.79 156.145 352.79C156.241 352.79 156.329 352.783 156.409 352.768C156.491 352.754 156.554 352.741 156.596 352.73L156.856 353.936C156.774 353.964 156.656 353.996 156.502 354.03C156.352 354.064 156.167 354.084 155.949 354.089C155.562 354.101 155.214 354.043 154.904 353.915C154.595 353.784 154.349 353.582 154.167 353.31C153.988 353.037 153.9 352.696 153.903 352.287V345.886Z" fill="black"/>
<rect x="490" y="219" width="112" height="47" rx="14" stroke="black" stroke-width="2"/>
<path d="M530.697 247L528.234 238.273H529.935L531.507 244.686H531.588L533.267 238.273H534.814L536.497 244.69H536.574L538.146 238.273H539.847L537.384 247H535.824L534.077 240.876H534.009L532.257 247H530.697ZM542.09 247.132C541.675 247.132 541.302 247.058 540.969 246.911C540.64 246.76 540.379 246.538 540.185 246.246C539.995 245.953 539.9 245.592 539.9 245.163C539.9 244.794 539.968 244.489 540.104 244.247C540.241 244.006 540.427 243.812 540.663 243.668C540.898 243.523 541.164 243.413 541.46 243.339C541.758 243.263 542.066 243.207 542.384 243.173C542.768 243.134 543.079 243.098 543.317 243.067C543.556 243.033 543.729 242.982 543.837 242.913C543.948 242.842 544.004 242.733 544.004 242.585V242.56C544.004 242.239 543.908 241.99 543.718 241.814C543.528 241.638 543.254 241.55 542.896 241.55C542.518 241.55 542.218 241.632 541.996 241.797C541.778 241.962 541.63 242.156 541.553 242.381L540.113 242.176C540.227 241.778 540.414 241.446 540.675 241.179C540.937 240.909 541.256 240.707 541.634 240.574C542.012 240.438 542.43 240.369 542.887 240.369C543.202 240.369 543.516 240.406 543.829 240.48C544.141 240.554 544.427 240.676 544.685 240.847C544.944 241.014 545.151 241.243 545.308 241.533C545.467 241.822 545.546 242.185 545.546 242.619V247H544.063V246.101H544.012C543.918 246.283 543.786 246.453 543.616 246.612C543.448 246.768 543.237 246.895 542.981 246.991C542.728 247.085 542.431 247.132 542.09 247.132ZM542.491 245.999C542.8 245.999 543.069 245.937 543.296 245.815C543.523 245.69 543.698 245.526 543.82 245.321C543.945 245.116 544.008 244.893 544.008 244.652V243.881C543.96 243.92 543.877 243.957 543.761 243.991C543.647 244.026 543.519 244.055 543.377 244.081C543.235 244.107 543.094 244.129 542.955 244.149C542.816 244.169 542.695 244.186 542.593 244.2C542.363 244.232 542.157 244.283 541.975 244.354C541.793 244.425 541.65 244.524 541.545 244.652C541.44 244.777 541.387 244.939 541.387 245.138C541.387 245.422 541.491 245.636 541.698 245.781C541.906 245.926 542.17 245.999 542.491 245.999ZM548.64 238.273V247H547.097V238.273H548.64ZM551.769 238.273V247H550.226V238.273H551.769ZM556.253 247.128C555.597 247.128 555.03 246.991 554.553 246.719C554.078 246.443 553.713 246.054 553.457 245.551C553.202 245.045 553.074 244.45 553.074 243.766C553.074 243.092 553.202 242.501 553.457 241.993C553.716 241.482 554.077 241.084 554.54 240.8C555.003 240.513 555.547 240.369 556.172 240.369C556.575 240.369 556.956 240.435 557.314 240.565C557.675 240.693 557.993 240.892 558.268 241.162C558.547 241.432 558.766 241.776 558.925 242.193C559.084 242.608 559.163 243.102 559.163 243.676V244.149H553.798V243.109H557.685C557.682 242.814 557.618 242.551 557.493 242.321C557.368 242.088 557.193 241.905 556.969 241.771C556.747 241.638 556.489 241.571 556.193 241.571C555.878 241.571 555.601 241.648 555.362 241.801C555.124 241.952 554.938 242.151 554.804 242.398C554.673 242.642 554.607 242.911 554.604 243.203V244.111C554.604 244.491 554.673 244.818 554.812 245.091C554.952 245.361 555.146 245.568 555.396 245.713C555.646 245.855 555.939 245.926 556.274 245.926C556.499 245.926 556.702 245.895 556.884 245.832C557.065 245.767 557.223 245.672 557.357 245.547C557.49 245.422 557.591 245.267 557.659 245.082L559.099 245.244C559.009 245.625 558.835 245.957 558.58 246.241C558.327 246.523 558.003 246.741 557.608 246.898C557.213 247.051 556.761 247.128 556.253 247.128ZM563.737 240.455V241.648H559.974V240.455H563.737ZM560.903 238.886H562.446V245.031C562.446 245.239 562.477 245.398 562.539 245.509C562.605 245.616 562.69 245.69 562.795 245.73C562.9 245.77 563.017 245.79 563.145 245.79C563.241 245.79 563.329 245.783 563.409 245.768C563.491 245.754 563.554 245.741 563.596 245.73L563.856 246.936C563.774 246.964 563.656 246.996 563.502 247.03C563.352 247.064 563.167 247.084 562.949 247.089C562.562 247.101 562.214 247.043 561.904 246.915C561.595 246.784 561.349 246.582 561.167 246.31C560.988 246.037 560.9 245.696 560.903 245.287V238.886Z" fill="black"/>
<rect x="490" y="384" width="112" height="47" rx="14" stroke="black" stroke-width="2"/>
<path d="M530.697 412L528.234 403.273H529.935L531.507 409.686H531.588L533.267 403.273H534.814L536.497 409.69H536.574L538.146 403.273H539.847L537.384 412H535.824L534.077 405.876H534.009L532.257 412H530.697ZM542.09 412.132C541.675 412.132 541.302 412.058 540.969 411.911C540.64 411.76 540.379 411.538 540.185 411.246C539.995 410.953 539.9 410.592 539.9 410.163C539.9 409.794 539.968 409.489 540.104 409.247C540.241 409.006 540.427 408.812 540.663 408.668C540.898 408.523 541.164 408.413 541.46 408.339C541.758 408.263 542.066 408.207 542.384 408.173C542.768 408.134 543.079 408.098 543.317 408.067C543.556 408.033 543.729 407.982 543.837 407.913C543.948 407.842 544.004 407.733 544.004 407.585V407.56C544.004 407.239 543.908 406.99 543.718 406.814C543.528 406.638 543.254 406.55 542.896 406.55C542.518 406.55 542.218 406.632 541.996 406.797C541.778 406.962 541.63 407.156 541.553 407.381L540.113 407.176C540.227 406.778 540.414 406.446 540.675 406.179C540.937 405.909 541.256 405.707 541.634 405.574C542.012 405.438 542.43 405.369 542.887 405.369C543.202 405.369 543.516 405.406 543.829 405.48C544.141 405.554 544.427 405.676 544.685 405.847C544.944 406.014 545.151 406.243 545.308 406.533C545.467 406.822 545.546 407.185 545.546 407.619V412H544.063V411.101H544.012C543.918 411.283 543.786 411.453 543.616 411.612C543.448 411.768 543.237 411.895 542.981 411.991C542.728 412.085 542.431 412.132 542.09 412.132ZM542.491 410.999C542.8 410.999 543.069 410.937 543.296 410.815C543.523 410.69 543.698 410.526 543.82 410.321C543.945 410.116 544.008 409.893 544.008 409.652V408.881C543.96 408.92 543.877 408.957 543.761 408.991C543.647 409.026 543.519 409.055 543.377 409.081C543.235 409.107 543.094 409.129 542.955 409.149C542.816 409.169 542.695 409.186 542.593 409.2C542.363 409.232 542.157 409.283 541.975 409.354C541.793 409.425 541.65 409.524 541.545 409.652C541.44 409.777 541.387 409.939 541.387 410.138C541.387 410.422 541.491 410.636 541.698 410.781C541.906 410.926 542.17 410.999 542.491 410.999ZM548.64 403.273V412H547.097V403.273H548.64ZM551.769 403.273V412H550.226V403.273H551.769ZM556.253 412.128C555.597 412.128 555.03 411.991 554.553 411.719C554.078 411.443 553.713 411.054 553.457 410.551C553.202 410.045 553.074 409.45 553.074 408.766C553.074 408.092 553.202 407.501 553.457 406.993C553.716 406.482 554.077 406.084 554.54 405.8C555.003 405.513 555.547 405.369 556.172 405.369C556.575 405.369 556.956 405.435 557.314 405.565C557.675 405.693 557.993 405.892 558.268 406.162C558.547 406.432 558.766 406.776 558.925 407.193C559.084 407.608 559.163 408.102 559.163 408.676V409.149H553.798V408.109H557.685C557.682 407.814 557.618 407.551 557.493 407.321C557.368 407.088 557.193 406.905 556.969 406.771C556.747 406.638 556.489 406.571 556.193 406.571C555.878 406.571 555.601 406.648 555.362 406.801C555.124 406.952 554.938 407.151 554.804 407.398C554.673 407.642 554.607 407.911 554.604 408.203V409.111C554.604 409.491 554.673 409.818 554.812 410.091C554.952 410.361 555.146 410.568 555.396 410.713C555.646 410.855 555.939 410.926 556.274 410.926C556.499 410.926 556.702 410.895 556.884 410.832C557.065 410.767 557.223 410.672 557.357 410.547C557.49 410.422 557.591 410.267 557.659 410.082L559.099 410.244C559.009 410.625 558.835 410.957 558.58 411.241C558.327 411.523 558.003 411.741 557.608 411.898C557.213 412.051 556.761 412.128 556.253 412.128ZM563.737 405.455V406.648H559.974V405.455H563.737ZM560.903 403.886H562.446V410.031C562.446 410.239 562.477 410.398 562.539 410.509C562.605 410.616 562.69 410.69 562.795 410.73C562.9 410.77 563.017 410.79 563.145 410.79C563.241 410.79 563.329 410.783 563.409 410.768C563.491 410.754 563.554 410.741 563.596 410.73L563.856 411.936C563.774 411.964 563.656 411.996 563.502 412.03C563.352 412.064 563.167 412.084 562.949 412.089C562.562 412.101 562.214 412.043 561.904 411.915C561.595 411.784 561.349 411.582 561.167 411.31C560.988 411.037 560.9 410.696 560.903 410.287V403.886Z" fill="black"/>
<rect x="490" y="482" width="112" height="47" rx="14" stroke="black" stroke-width="2"/>
<path d="M530.697 510L528.234 501.273H529.935L531.507 507.686H531.588L533.267 501.273H534.814L536.497 507.69H536.574L538.146 501.273H539.847L537.384 510H535.824L534.077 503.876H534.009L532.257 510H530.697ZM542.09 510.132C541.675 510.132 541.302 510.058 540.969 509.911C540.64 509.76 540.379 509.538 540.185 509.246C539.995 508.953 539.9 508.592 539.9 508.163C539.9 507.794 539.968 507.489 540.104 507.247C540.241 507.006 540.427 506.812 540.663 506.668C540.898 506.523 541.164 506.413 541.46 506.339C541.758 506.263 542.066 506.207 542.384 506.173C542.768 506.134 543.079 506.098 543.317 506.067C543.556 506.033 543.729 505.982 543.837 505.913C543.948 505.842 544.004 505.733 544.004 505.585V505.56C544.004 505.239 543.908 504.99 543.718 504.814C543.528 504.638 543.254 504.55 542.896 504.55C542.518 504.55 542.218 504.632 541.996 504.797C541.778 504.962 541.63 505.156 541.553 505.381L540.113 505.176C540.227 504.778 540.414 504.446 540.675 504.179C540.937 503.909 541.256 503.707 541.634 503.574C542.012 503.438 542.43 503.369 542.887 503.369C543.202 503.369 543.516 503.406 543.829 503.48C544.141 503.554 544.427 503.676 544.685 503.847C544.944 504.014 545.151 504.243 545.308 504.533C545.467 504.822 545.546 505.185 545.546 505.619V510H544.063V509.101H544.012C543.918 509.283 543.786 509.453 543.616 509.612C543.448 509.768 543.237 509.895 542.981 509.991C542.728 510.085 542.431 510.132 542.09 510.132ZM542.491 508.999C542.8 508.999 543.069 508.937 543.296 508.815C543.523 508.69 543.698 508.526 543.82 508.321C543.945 508.116 544.008 507.893 544.008 507.652V506.881C543.96 506.92 543.877 506.957 543.761 506.991C543.647 507.026 543.519 507.055 543.377 507.081C543.235 507.107 543.094 507.129 542.955 507.149C542.816 507.169 542.695 507.186 542.593 507.2C542.363 507.232 542.157 507.283 541.975 507.354C541.793 507.425 541.65 507.524 541.545 507.652C541.44 507.777 541.387 507.939 541.387 508.138C541.387 508.422 541.491 508.636 541.698 508.781C541.906 508.926 542.17 508.999 542.491 508.999ZM548.64 501.273V510H547.097V501.273H548.64ZM551.769 501.273V510H550.226V501.273H551.769ZM556.253 510.128C555.597 510.128 555.03 509.991 554.553 509.719C554.078 509.443 553.713 509.054 553.457 508.551C553.202 508.045 553.074 507.45 553.074 506.766C553.074 506.092 553.202 505.501 553.457 504.993C553.716 504.482 554.077 504.084 554.54 503.8C555.003 503.513 555.547 503.369 556.172 503.369C556.575 503.369 556.956 503.435 557.314 503.565C557.675 503.693 557.993 503.892 558.268 504.162C558.547 504.432 558.766 504.776 558.925 505.193C559.084 505.608 559.163 506.102 559.163 506.676V507.149H553.798V506.109H557.685C557.682 505.814 557.618 505.551 557.493 505.321C557.368 505.088 557.193 504.905 556.969 504.771C556.747 504.638 556.489 504.571 556.193 504.571C555.878 504.571 555.601 504.648 555.362 504.801C555.124 504.952 554.938 505.151 554.804 505.398C554.673 505.642 554.607 505.911 554.604 506.203V507.111C554.604 507.491 554.673 507.818 554.812 508.091C554.952 508.361 555.146 508.568 555.396 508.713C555.646 508.855 555.939 508.926 556.274 508.926C556.499 508.926 556.702 508.895 556.884 508.832C557.065 508.767 557.223 508.672 557.357 508.547C557.49 508.422 557.591 508.267 557.659 508.082L559.099 508.244C559.009 508.625 558.835 508.957 558.58 509.241C558.327 509.523 558.003 509.741 557.608 509.898C557.213 510.051 556.761 510.128 556.253 510.128ZM563.737 503.455V504.648H559.974V503.455H563.737ZM560.903 501.886H562.446V508.031C562.446 508.239 562.477 508.398 562.539 508.509C562.605 508.616 562.69 508.69 562.795 508.73C562.9 508.77 563.017 508.79 563.145 508.79C563.241 508.79 563.329 508.783 563.409 508.768C563.491 508.754 563.554 508.741 563.596 508.73L563.856 509.936C563.774 509.964 563.656 509.996 563.502 510.03C563.352 510.064 563.167 510.084 562.949 510.089C562.562 510.101 562.214 510.043 561.904 509.915C561.595 509.784 561.349 509.582 561.167 509.31C560.988 509.037 560.9 508.696 560.903 508.287V501.886Z" fill="black"/>
<rect x="666" y="482" width="112" height="47" rx="14" stroke="black" stroke-width="2"/>
<path d="M711.604 503.672C711.564 503.3 711.396 503.01 711.101 502.803C710.808 502.595 710.428 502.491 709.959 502.491C709.629 502.491 709.347 502.541 709.111 502.641C708.875 502.74 708.695 502.875 708.57 503.045C708.445 503.216 708.381 503.411 708.378 503.629C708.378 503.811 708.419 503.969 708.501 504.102C708.587 504.236 708.702 504.349 708.847 504.443C708.991 504.534 709.152 504.611 709.328 504.673C709.504 504.736 709.682 504.788 709.861 504.831L710.679 505.036C711.009 505.112 711.325 505.216 711.629 505.347C711.936 505.477 712.21 505.642 712.452 505.841C712.696 506.04 712.889 506.28 713.031 506.561C713.173 506.842 713.244 507.172 713.244 507.55C713.244 508.061 713.114 508.511 712.852 508.901C712.591 509.287 712.213 509.589 711.719 509.808C711.227 510.024 710.632 510.132 709.933 510.132C709.254 510.132 708.665 510.027 708.165 509.817C707.668 509.607 707.278 509.3 706.997 508.896C706.719 508.493 706.568 508.001 706.545 507.422H708.101C708.124 507.726 708.217 507.979 708.382 508.18C708.547 508.382 708.761 508.533 709.026 508.632C709.293 508.732 709.591 508.781 709.92 508.781C710.264 508.781 710.565 508.73 710.824 508.628C711.085 508.523 711.29 508.378 711.438 508.193C711.585 508.006 711.661 507.787 711.663 507.537C711.661 507.31 711.594 507.122 711.463 506.974C711.332 506.824 711.149 506.699 710.913 506.599C710.68 506.497 710.408 506.406 710.095 506.327L709.102 506.071C708.384 505.886 707.815 505.607 707.398 505.232C706.983 504.854 706.776 504.352 706.776 503.727C706.776 503.213 706.915 502.763 707.193 502.376C707.474 501.99 707.857 501.69 708.339 501.477C708.822 501.261 709.369 501.153 709.98 501.153C710.599 501.153 711.142 501.261 711.608 501.477C712.077 501.69 712.445 501.987 712.712 502.368C712.979 502.746 713.116 503.18 713.125 503.672H711.604ZM715.936 510L714.087 503.455H715.659L716.81 508.057H716.87L718.046 503.455H719.601L720.777 508.031H720.841L721.975 503.455H723.551L721.698 510H720.091L718.864 505.577H718.775L717.547 510H715.936ZM726.512 510.132C726.097 510.132 725.724 510.058 725.391 509.911C725.062 509.76 724.8 509.538 724.607 509.246C724.417 508.953 724.322 508.592 724.322 508.163C724.322 507.794 724.39 507.489 724.526 507.247C724.663 507.006 724.849 506.812 725.085 506.668C725.32 506.523 725.586 506.413 725.881 506.339C726.18 506.263 726.488 506.207 726.806 506.173C727.19 506.134 727.501 506.098 727.739 506.067C727.978 506.033 728.151 505.982 728.259 505.913C728.37 505.842 728.425 505.733 728.425 505.585V505.56C728.425 505.239 728.33 504.99 728.14 504.814C727.95 504.638 727.675 504.55 727.317 504.55C726.94 504.55 726.64 504.632 726.418 504.797C726.2 504.962 726.052 505.156 725.975 505.381L724.535 505.176C724.648 504.778 724.836 504.446 725.097 504.179C725.359 503.909 725.678 503.707 726.056 503.574C726.434 503.438 726.852 503.369 727.309 503.369C727.624 503.369 727.938 503.406 728.251 503.48C728.563 503.554 728.849 503.676 729.107 503.847C729.366 504.014 729.573 504.243 729.729 504.533C729.888 504.822 729.968 505.185 729.968 505.619V510H728.485V509.101H728.434C728.34 509.283 728.208 509.453 728.038 509.612C727.87 509.768 727.658 509.895 727.403 509.991C727.15 510.085 726.853 510.132 726.512 510.132ZM726.913 508.999C727.222 508.999 727.491 508.937 727.718 508.815C727.945 508.69 728.12 508.526 728.242 508.321C728.367 508.116 728.43 507.893 728.43 507.652V506.881C728.381 506.92 728.299 506.957 728.183 506.991C728.069 507.026 727.941 507.055 727.799 507.081C727.657 507.107 727.516 507.129 727.377 507.149C727.238 507.169 727.117 507.186 727.015 507.2C726.785 507.232 726.579 507.283 726.397 507.354C726.215 507.425 726.072 507.524 725.967 507.652C725.862 507.777 725.809 507.939 725.809 508.138C725.809 508.422 725.913 508.636 726.12 508.781C726.327 508.926 726.592 508.999 726.913 508.999ZM731.519 512.455V503.455H733.036V504.537H733.126C733.205 504.378 733.317 504.209 733.462 504.03C733.607 503.848 733.803 503.693 734.05 503.565C734.298 503.435 734.613 503.369 734.996 503.369C735.502 503.369 735.958 503.499 736.364 503.757C736.773 504.013 737.097 504.392 737.336 504.895C737.577 505.395 737.698 506.009 737.698 506.736C737.698 507.455 737.58 508.065 737.344 508.568C737.109 509.071 736.788 509.455 736.381 509.719C735.975 509.983 735.515 510.115 735.001 510.115C734.626 510.115 734.315 510.053 734.067 509.928C733.82 509.803 733.621 509.652 733.471 509.476C733.323 509.297 733.208 509.128 733.126 508.969H733.062V512.455H731.519ZM733.032 506.727C733.032 507.151 733.092 507.521 733.211 507.839C733.333 508.158 733.508 508.406 733.735 508.585C733.965 508.761 734.244 508.849 734.57 508.849C734.911 508.849 735.197 508.759 735.427 508.577C735.657 508.392 735.83 508.141 735.947 507.822C736.066 507.501 736.126 507.136 736.126 506.727C736.126 506.321 736.067 505.96 735.951 505.645C735.835 505.33 735.661 505.082 735.431 504.903C735.201 504.724 734.914 504.635 734.57 504.635C734.241 504.635 733.961 504.722 733.731 504.895C733.501 505.068 733.326 505.311 733.207 505.624C733.09 505.936 733.032 506.304 733.032 506.727Z" fill="black"/>
<rect x="842" y="482" width="112" height="47" rx="14" stroke="black" stroke-width="2"/>
<path d="M887.604 503.672C887.564 503.3 887.396 503.01 887.101 502.803C886.808 502.595 886.428 502.491 885.959 502.491C885.629 502.491 885.347 502.541 885.111 502.641C884.875 502.74 884.695 502.875 884.57 503.045C884.445 503.216 884.381 503.411 884.378 503.629C884.378 503.811 884.419 503.969 884.501 504.102C884.587 504.236 884.702 504.349 884.847 504.443C884.991 504.534 885.152 504.611 885.328 504.673C885.504 504.736 885.682 504.788 885.861 504.831L886.679 505.036C887.009 505.112 887.325 505.216 887.629 505.347C887.936 505.477 888.21 505.642 888.452 505.841C888.696 506.04 888.889 506.28 889.031 506.561C889.173 506.842 889.244 507.172 889.244 507.55C889.244 508.061 889.114 508.511 888.852 508.901C888.591 509.287 888.213 509.589 887.719 509.808C887.227 510.024 886.632 510.132 885.933 510.132C885.254 510.132 884.665 510.027 884.165 509.817C883.668 509.607 883.278 509.3 882.997 508.896C882.719 508.493 882.568 508.001 882.545 507.422H884.101C884.124 507.726 884.217 507.979 884.382 508.18C884.547 508.382 884.761 508.533 885.026 508.632C885.293 508.732 885.591 508.781 885.92 508.781C886.264 508.781 886.565 508.73 886.824 508.628C887.085 508.523 887.29 508.378 887.438 508.193C887.585 508.006 887.661 507.787 887.663 507.537C887.661 507.31 887.594 507.122 887.463 506.974C887.332 506.824 887.149 506.699 886.913 506.599C886.68 506.497 886.408 506.406 886.095 506.327L885.102 506.071C884.384 505.886 883.815 505.607 883.398 505.232C882.983 504.854 882.776 504.352 882.776 503.727C882.776 503.213 882.915 502.763 883.193 502.376C883.474 501.99 883.857 501.69 884.339 501.477C884.822 501.261 885.369 501.153 885.98 501.153C886.599 501.153 887.142 501.261 887.608 501.477C888.077 501.69 888.445 501.987 888.712 502.368C888.979 502.746 889.116 503.18 889.125 503.672H887.604ZM893.854 503.455V504.648H890.091V503.455H893.854ZM891.02 501.886H892.563V508.031C892.563 508.239 892.594 508.398 892.657 508.509C892.722 508.616 892.807 508.69 892.912 508.73C893.017 508.77 893.134 508.79 893.262 508.79C893.358 508.79 893.446 508.783 893.526 508.768C893.608 508.754 893.671 508.741 893.713 508.73L893.973 509.936C893.891 509.964 893.773 509.996 893.62 510.03C893.469 510.064 893.284 510.084 893.066 510.089C892.679 510.101 892.331 510.043 892.022 509.915C891.712 509.784 891.466 509.582 891.284 509.31C891.105 509.037 891.017 508.696 891.02 508.287V501.886ZM897.028 510.132C896.613 510.132 896.239 510.058 895.907 509.911C895.577 509.76 895.316 509.538 895.123 509.246C894.933 508.953 894.837 508.592 894.837 508.163C894.837 507.794 894.906 507.489 895.042 507.247C895.178 507.006 895.364 506.812 895.6 506.668C895.836 506.523 896.102 506.413 896.397 506.339C896.695 506.263 897.004 506.207 897.322 506.173C897.705 506.134 898.016 506.098 898.255 506.067C898.494 506.033 898.667 505.982 898.775 505.913C898.886 505.842 898.941 505.733 898.941 505.585V505.56C898.941 505.239 898.846 504.99 898.656 504.814C898.465 504.638 898.191 504.55 897.833 504.55C897.455 504.55 897.156 504.632 896.934 504.797C896.715 504.962 896.567 505.156 896.491 505.381L895.05 505.176C895.164 504.778 895.352 504.446 895.613 504.179C895.874 503.909 896.194 503.707 896.572 503.574C896.95 503.438 897.367 503.369 897.825 503.369C898.14 503.369 898.454 503.406 898.766 503.48C899.079 503.554 899.364 503.676 899.623 503.847C899.881 504.014 900.089 504.243 900.245 504.533C900.404 504.822 900.484 505.185 900.484 505.619V510H899.001V509.101H898.95C898.856 509.283 898.724 509.453 898.553 509.612C898.386 509.768 898.174 509.895 897.918 509.991C897.665 510.085 897.369 510.132 897.028 510.132ZM897.428 508.999C897.738 508.999 898.006 508.937 898.234 508.815C898.461 508.69 898.636 508.526 898.758 508.321C898.883 508.116 898.945 507.893 898.945 507.652V506.881C898.897 506.92 898.815 506.957 898.698 506.991C898.585 507.026 898.457 507.055 898.315 507.081C898.173 507.107 898.032 507.129 897.893 507.149C897.754 507.169 897.633 507.186 897.531 507.2C897.3 507.232 897.094 507.283 896.913 507.354C896.731 507.425 896.587 507.524 896.482 507.652C896.377 507.777 896.325 507.939 896.325 508.138C896.325 508.422 896.428 508.636 896.636 508.781C896.843 508.926 897.107 508.999 897.428 508.999ZM903.441 507.946L903.437 506.084H903.684L906.036 503.455H907.839L904.945 506.676H904.626L903.441 507.946ZM902.035 510V501.273H903.577V510H902.035ZM906.143 510L904.012 507.021L905.052 505.935L907.988 510H906.143ZM911.495 510.128C910.839 510.128 910.272 509.991 909.795 509.719C909.32 509.443 908.955 509.054 908.7 508.551C908.444 508.045 908.316 507.45 908.316 506.766C908.316 506.092 908.444 505.501 908.7 504.993C908.958 504.482 909.319 504.084 909.782 503.8C910.245 503.513 910.789 503.369 911.414 503.369C911.817 503.369 912.198 503.435 912.556 503.565C912.917 503.693 913.235 503.892 913.511 504.162C913.789 504.432 914.008 504.776 914.167 505.193C914.326 505.608 914.406 506.102 914.406 506.676V507.149H909.04V506.109H912.927C912.924 505.814 912.86 505.551 912.735 505.321C912.61 505.088 912.435 504.905 912.211 504.771C911.989 504.638 911.731 504.571 911.435 504.571C911.12 504.571 910.843 504.648 910.604 504.801C910.366 504.952 910.18 505.151 910.046 505.398C909.915 505.642 909.849 505.911 909.846 506.203V507.111C909.846 507.491 909.915 507.818 910.055 508.091C910.194 508.361 910.388 508.568 910.638 508.713C910.888 508.855 911.181 508.926 911.516 508.926C911.741 508.926 911.944 508.895 912.126 508.832C912.308 508.767 912.465 508.672 912.599 508.547C912.732 508.422 912.833 508.267 912.901 508.082L914.342 508.244C914.251 508.625 914.077 508.957 913.822 509.241C913.569 509.523 913.245 509.741 912.85 509.898C912.455 510.051 912.004 510.128 911.495 510.128Z" fill="black"/>
<rect x="666" y="384" width="112" height="47" rx="14" stroke="black" stroke-width="2"/>
<path d="M709.818 412H706.861V403.273H709.878C710.744 403.273 711.489 403.447 712.111 403.797C712.736 404.143 713.216 404.642 713.551 405.293C713.886 405.943 714.054 406.722 714.054 407.628C714.054 408.537 713.885 409.318 713.547 409.972C713.212 410.625 712.727 411.126 712.094 411.476C711.463 411.825 710.705 412 709.818 412ZM708.442 410.632H709.741C710.349 410.632 710.857 410.521 711.263 410.3C711.669 410.075 711.974 409.741 712.179 409.298C712.384 408.852 712.486 408.295 712.486 407.628C712.486 406.96 712.384 406.406 712.179 405.966C711.974 405.523 711.672 405.192 711.271 404.973C710.874 404.751 710.379 404.641 709.788 404.641H708.442V410.632ZM716.208 412H714.521L717.593 403.273H719.545L722.621 412H720.934L718.603 405.062H718.535L716.208 412ZM716.263 408.578H720.866V409.848H716.263V408.578ZM723.703 414.455V405.455H725.22V406.537H725.309C725.389 406.378 725.501 406.209 725.646 406.03C725.791 405.848 725.987 405.693 726.234 405.565C726.481 405.435 726.797 405.369 727.18 405.369C727.686 405.369 728.142 405.499 728.548 405.757C728.957 406.013 729.281 406.392 729.52 406.895C729.761 407.395 729.882 408.009 729.882 408.736C729.882 409.455 729.764 410.065 729.528 410.568C729.292 411.071 728.971 411.455 728.565 411.719C728.159 411.983 727.699 412.115 727.184 412.115C726.809 412.115 726.498 412.053 726.251 411.928C726.004 411.803 725.805 411.652 725.654 411.476C725.507 411.297 725.392 411.128 725.309 410.969H725.245V414.455H723.703ZM725.216 408.727C725.216 409.151 725.275 409.521 725.395 409.839C725.517 410.158 725.691 410.406 725.919 410.585C726.149 410.761 726.427 410.849 726.754 410.849C727.095 410.849 727.38 410.759 727.61 410.577C727.841 410.392 728.014 410.141 728.13 409.822C728.25 409.501 728.309 409.136 728.309 408.727C728.309 408.321 728.251 407.96 728.135 407.645C728.018 407.33 727.845 407.082 727.615 406.903C727.385 406.724 727.098 406.635 726.754 406.635C726.424 406.635 726.145 406.722 725.914 406.895C725.684 407.068 725.51 407.311 725.39 407.624C725.274 407.936 725.216 408.304 725.216 408.727ZM731.203 414.455V405.455H732.72V406.537H732.809C732.889 406.378 733.001 406.209 733.146 406.03C733.291 405.848 733.487 405.693 733.734 405.565C733.981 405.435 734.297 405.369 734.68 405.369C735.186 405.369 735.642 405.499 736.048 405.757C736.457 406.013 736.781 406.392 737.02 406.895C737.261 407.395 737.382 408.009 737.382 408.736C737.382 409.455 737.264 410.065 737.028 410.568C736.792 411.071 736.471 411.455 736.065 411.719C735.659 411.983 735.199 412.115 734.684 412.115C734.309 412.115 733.998 412.053 733.751 411.928C733.504 411.803 733.305 411.652 733.154 411.476C733.007 411.297 732.892 411.128 732.809 410.969H732.745V414.455H731.203ZM732.716 408.727C732.716 409.151 732.775 409.521 732.895 409.839C733.017 410.158 733.191 410.406 733.419 410.585C733.649 410.761 733.927 410.849 734.254 410.849C734.595 410.849 734.88 410.759 735.11 410.577C735.341 410.392 735.514 410.141 735.63 409.822C735.75 409.501 735.809 409.136 735.809 408.727C735.809 408.321 735.751 407.96 735.635 407.645C735.518 407.33 735.345 407.082 735.115 406.903C734.885 406.724 734.598 406.635 734.254 406.635C733.924 406.635 733.645 406.722 733.414 406.895C733.184 407.068 733.01 407.311 732.89 407.624C732.774 407.936 732.716 408.304 732.716 408.727Z" fill="black"/>
<rect x="666" y="219" width="112" height="47" rx="14" stroke="black" stroke-width="2"/>
<path d="M718.033 238.273V247H716.626L712.514 241.055H712.442V247H710.861V238.273H712.276L716.384 244.222H716.46V238.273H718.033ZM719.755 247V238.273H725.346V239.598H721.336V241.967H724.963V243.293H721.336V247H719.755ZM726.403 239.598V238.273H733.366V239.598H730.669V247H729.1V239.598H726.403Z" fill="black"/>
<rect x="314" y="219" width="112" height="47" rx="14" stroke="black" stroke-width="2"/>
<path d="M352.861 247V238.273H356.202C356.832 238.273 357.357 238.372 357.774 238.571C358.195 238.767 358.509 239.036 358.716 239.376C358.926 239.717 359.031 240.104 359.031 240.536C359.031 240.891 358.963 241.195 358.827 241.447C358.69 241.697 358.507 241.901 358.277 242.057C358.047 242.213 357.79 242.325 357.506 242.393V242.479C357.815 242.496 358.112 242.591 358.396 242.764C358.683 242.935 358.918 243.176 359.099 243.489C359.281 243.801 359.372 244.179 359.372 244.622C359.372 245.074 359.263 245.48 359.044 245.841C358.825 246.199 358.496 246.482 358.055 246.689C357.615 246.896 357.061 247 356.393 247H352.861ZM354.442 245.679H356.142C356.716 245.679 357.129 245.57 357.382 245.351C357.638 245.129 357.766 244.845 357.766 244.499C357.766 244.24 357.702 244.007 357.574 243.8C357.446 243.589 357.264 243.425 357.028 243.305C356.793 243.183 356.511 243.122 356.185 243.122H354.442V245.679ZM354.442 241.984H356.006C356.278 241.984 356.524 241.935 356.743 241.835C356.962 241.733 357.134 241.589 357.259 241.405C357.386 241.217 357.45 240.996 357.45 240.74C357.45 240.402 357.331 240.124 357.092 239.905C356.857 239.686 356.506 239.577 356.04 239.577H354.442V241.984ZM360.679 247V240.455H362.175V241.545H362.243C362.363 241.168 362.567 240.876 362.857 240.672C363.15 240.464 363.483 240.361 363.858 240.361C363.944 240.361 364.039 240.365 364.144 240.374C364.252 240.379 364.341 240.389 364.412 240.403V241.822C364.347 241.8 364.243 241.78 364.101 241.763C363.962 241.743 363.827 241.733 363.696 241.733C363.415 241.733 363.162 241.794 362.938 241.916C362.716 242.036 362.542 242.202 362.414 242.415C362.286 242.628 362.222 242.874 362.222 243.152V247H360.679ZM365.437 247V240.455H366.98V247H365.437ZM366.213 239.526C365.968 239.526 365.758 239.445 365.582 239.283C365.406 239.118 365.318 238.92 365.318 238.69C365.318 238.457 365.406 238.26 365.582 238.098C365.758 237.933 365.968 237.851 366.213 237.851C366.46 237.851 366.67 237.933 366.843 238.098C367.02 238.26 367.108 238.457 367.108 238.69C367.108 238.92 367.02 239.118 366.843 239.283C366.67 239.445 366.46 239.526 366.213 239.526ZM370.995 247.115C370.481 247.115 370.021 246.983 369.614 246.719C369.208 246.455 368.887 246.071 368.651 245.568C368.415 245.065 368.298 244.455 368.298 243.736C368.298 243.009 368.417 242.395 368.656 241.895C368.897 241.392 369.222 241.013 369.631 240.757C370.04 240.499 370.496 240.369 370.999 240.369C371.383 240.369 371.698 240.435 371.945 240.565C372.192 240.693 372.388 240.848 372.533 241.03C372.678 241.209 372.79 241.378 372.87 241.537H372.934V238.273H374.481V247H372.964V245.969H372.87C372.79 246.128 372.675 246.297 372.525 246.476C372.374 246.652 372.175 246.803 371.928 246.928C371.681 247.053 371.37 247.115 370.995 247.115ZM371.425 245.849C371.752 245.849 372.031 245.761 372.261 245.585C372.491 245.406 372.665 245.158 372.785 244.839C372.904 244.521 372.964 244.151 372.964 243.727C372.964 243.304 372.904 242.936 372.785 242.624C372.668 242.311 372.495 242.068 372.265 241.895C372.038 241.722 371.758 241.635 371.425 241.635C371.082 241.635 370.795 241.724 370.565 241.903C370.335 242.082 370.161 242.33 370.045 242.645C369.928 242.96 369.87 243.321 369.87 243.727C369.87 244.136 369.928 244.501 370.045 244.822C370.164 245.141 370.339 245.392 370.569 245.577C370.802 245.759 371.087 245.849 371.425 245.849ZM378.971 249.591C378.417 249.591 377.941 249.516 377.544 249.365C377.146 249.217 376.826 249.018 376.585 248.768C376.343 248.518 376.176 248.241 376.082 247.938L377.471 247.601C377.534 247.729 377.625 247.855 377.744 247.98C377.863 248.108 378.024 248.213 378.225 248.295C378.43 248.381 378.687 248.423 378.997 248.423C379.434 248.423 379.797 248.317 380.083 248.104C380.37 247.893 380.514 247.547 380.514 247.064V245.824H380.437C380.358 245.983 380.241 246.146 380.088 246.314C379.937 246.482 379.737 246.622 379.487 246.736C379.24 246.849 378.929 246.906 378.554 246.906C378.051 246.906 377.595 246.788 377.186 246.553C376.779 246.314 376.456 245.959 376.214 245.487C375.975 245.013 375.856 244.419 375.856 243.706C375.856 242.987 375.975 242.381 376.214 241.886C376.456 241.389 376.781 241.013 377.19 240.757C377.599 240.499 378.055 240.369 378.558 240.369C378.941 240.369 379.257 240.435 379.504 240.565C379.754 240.693 379.953 240.848 380.1 241.03C380.248 241.209 380.36 241.378 380.437 241.537H380.522V240.455H382.044V247.107C382.044 247.666 381.91 248.129 381.643 248.496C381.376 248.862 381.011 249.136 380.548 249.318C380.085 249.5 379.559 249.591 378.971 249.591ZM378.984 245.696C379.311 245.696 379.589 245.616 379.819 245.457C380.049 245.298 380.224 245.07 380.343 244.771C380.463 244.473 380.522 244.115 380.522 243.697C380.522 243.286 380.463 242.925 380.343 242.615C380.227 242.305 380.054 242.065 379.824 241.895C379.596 241.722 379.316 241.635 378.984 241.635C378.64 241.635 378.353 241.724 378.123 241.903C377.893 242.082 377.72 242.328 377.603 242.641C377.487 242.95 377.429 243.303 377.429 243.697C377.429 244.098 377.487 244.449 377.603 244.75C377.723 245.048 377.897 245.281 378.127 245.449C378.36 245.614 378.646 245.696 378.984 245.696ZM386.522 247.128C385.866 247.128 385.299 246.991 384.822 246.719C384.348 246.443 383.983 246.054 383.727 245.551C383.471 245.045 383.343 244.45 383.343 243.766C383.343 243.092 383.471 242.501 383.727 241.993C383.985 241.482 384.346 241.084 384.809 240.8C385.272 240.513 385.816 240.369 386.441 240.369C386.845 240.369 387.225 240.435 387.583 240.565C387.944 240.693 388.262 240.892 388.538 241.162C388.816 241.432 389.035 241.776 389.194 242.193C389.353 242.608 389.433 243.102 389.433 243.676V244.149H384.068V243.109H387.954C387.951 242.814 387.887 242.551 387.762 242.321C387.637 242.088 387.463 241.905 387.238 241.771C387.017 241.638 386.758 241.571 386.463 241.571C386.147 241.571 385.87 241.648 385.632 241.801C385.393 241.952 385.207 242.151 385.074 242.398C384.943 242.642 384.876 242.911 384.873 243.203V244.111C384.873 244.491 384.943 244.818 385.082 245.091C385.221 245.361 385.416 245.568 385.666 245.713C385.916 245.855 386.208 245.926 386.544 245.926C386.768 245.926 386.971 245.895 387.153 245.832C387.335 245.767 387.493 245.672 387.626 245.547C387.76 245.422 387.86 245.267 387.929 245.082L389.369 245.244C389.278 245.625 389.105 245.957 388.849 246.241C388.596 246.523 388.272 246.741 387.877 246.898C387.483 247.051 387.031 247.128 386.522 247.128Z" fill="black"/>
<rect x="314" y="433" width="112" height="47" rx="14" stroke="black" stroke-width="2"/>
<path d="M352.861 461V452.273H356.202C356.832 452.273 357.357 452.372 357.774 452.571C358.195 452.767 358.509 453.036 358.716 453.376C358.926 453.717 359.031 454.104 359.031 454.536C359.031 454.891 358.963 455.195 358.827 455.447C358.69 455.697 358.507 455.901 358.277 456.057C358.047 456.213 357.79 456.325 357.506 456.393V456.479C357.815 456.496 358.112 456.591 358.396 456.764C358.683 456.935 358.918 457.176 359.099 457.489C359.281 457.801 359.372 458.179 359.372 458.622C359.372 459.074 359.263 459.48 359.044 459.841C358.825 460.199 358.496 460.482 358.055 460.689C357.615 460.896 357.061 461 356.393 461H352.861ZM354.442 459.679H356.142C356.716 459.679 357.129 459.57 357.382 459.351C357.638 459.129 357.766 458.845 357.766 458.499C357.766 458.24 357.702 458.007 357.574 457.8C357.446 457.589 357.264 457.425 357.028 457.305C356.793 457.183 356.511 457.122 356.185 457.122H354.442V459.679ZM354.442 455.984H356.006C356.278 455.984 356.524 455.935 356.743 455.835C356.962 455.733 357.134 455.589 357.259 455.405C357.386 455.217 357.45 454.996 357.45 454.74C357.45 454.402 357.331 454.124 357.092 453.905C356.857 453.686 356.506 453.577 356.04 453.577H354.442V455.984ZM360.679 461V454.455H362.175V455.545H362.243C362.363 455.168 362.567 454.876 362.857 454.672C363.15 454.464 363.483 454.361 363.858 454.361C363.944 454.361 364.039 454.365 364.144 454.374C364.252 454.379 364.341 454.389 364.412 454.403V455.822C364.347 455.8 364.243 455.78 364.101 455.763C363.962 455.743 363.827 455.733 363.696 455.733C363.415 455.733 363.162 455.794 362.938 455.916C362.716 456.036 362.542 456.202 362.414 456.415C362.286 456.628 362.222 456.874 362.222 457.152V461H360.679ZM365.437 461V454.455H366.98V461H365.437ZM366.213 453.526C365.968 453.526 365.758 453.445 365.582 453.283C365.406 453.118 365.318 452.92 365.318 452.69C365.318 452.457 365.406 452.26 365.582 452.098C365.758 451.933 365.968 451.851 366.213 451.851C366.46 451.851 366.67 451.933 366.843 452.098C367.02 452.26 367.108 452.457 367.108 452.69C367.108 452.92 367.02 453.118 366.843 453.283C366.67 453.445 366.46 453.526 366.213 453.526ZM370.995 461.115C370.481 461.115 370.021 460.983 369.614 460.719C369.208 460.455 368.887 460.071 368.651 459.568C368.415 459.065 368.298 458.455 368.298 457.736C368.298 457.009 368.417 456.395 368.656 455.895C368.897 455.392 369.222 455.013 369.631 454.757C370.04 454.499 370.496 454.369 370.999 454.369C371.383 454.369 371.698 454.435 371.945 454.565C372.192 454.693 372.388 454.848 372.533 455.03C372.678 455.209 372.79 455.378 372.87 455.537H372.934V452.273H374.481V461H372.964V459.969H372.87C372.79 460.128 372.675 460.297 372.525 460.476C372.374 460.652 372.175 460.803 371.928 460.928C371.681 461.053 371.37 461.115 370.995 461.115ZM371.425 459.849C371.752 459.849 372.031 459.761 372.261 459.585C372.491 459.406 372.665 459.158 372.785 458.839C372.904 458.521 372.964 458.151 372.964 457.727C372.964 457.304 372.904 456.936 372.785 456.624C372.668 456.311 372.495 456.068 372.265 455.895C372.038 455.722 371.758 455.635 371.425 455.635C371.082 455.635 370.795 455.724 370.565 455.903C370.335 456.082 370.161 456.33 370.045 456.645C369.928 456.96 369.87 457.321 369.87 457.727C369.87 458.136 369.928 458.501 370.045 458.822C370.164 459.141 370.339 459.392 370.569 459.577C370.802 459.759 371.087 459.849 371.425 459.849ZM378.971 463.591C378.417 463.591 377.941 463.516 377.544 463.365C377.146 463.217 376.826 463.018 376.585 462.768C376.343 462.518 376.176 462.241 376.082 461.938L377.471 461.601C377.534 461.729 377.625 461.855 377.744 461.98C377.863 462.108 378.024 462.213 378.225 462.295C378.43 462.381 378.687 462.423 378.997 462.423C379.434 462.423 379.797 462.317 380.083 462.104C380.37 461.893 380.514 461.547 380.514 461.064V459.824H380.437C380.358 459.983 380.241 460.146 380.088 460.314C379.937 460.482 379.737 460.622 379.487 460.736C379.24 460.849 378.929 460.906 378.554 460.906C378.051 460.906 377.595 460.788 377.186 460.553C376.779 460.314 376.456 459.959 376.214 459.487C375.975 459.013 375.856 458.419 375.856 457.706C375.856 456.987 375.975 456.381 376.214 455.886C376.456 455.389 376.781 455.013 377.19 454.757C377.599 454.499 378.055 454.369 378.558 454.369C378.941 454.369 379.257 454.435 379.504 454.565C379.754 454.693 379.953 454.848 380.1 455.03C380.248 455.209 380.36 455.378 380.437 455.537H380.522V454.455H382.044V461.107C382.044 461.666 381.91 462.129 381.643 462.496C381.376 462.862 381.011 463.136 380.548 463.318C380.085 463.5 379.559 463.591 378.971 463.591ZM378.984 459.696C379.311 459.696 379.589 459.616 379.819 459.457C380.049 459.298 380.224 459.07 380.343 458.771C380.463 458.473 380.522 458.115 380.522 457.697C380.522 457.286 380.463 456.925 380.343 456.615C380.227 456.305 380.054 456.065 379.824 455.895C379.596 455.722 379.316 455.635 378.984 455.635C378.64 455.635 378.353 455.724 378.123 455.903C377.893 456.082 377.72 456.328 377.603 456.641C377.487 456.95 377.429 457.303 377.429 457.697C377.429 458.098 377.487 458.449 377.603 458.75C377.723 459.048 377.897 459.281 378.127 459.449C378.36 459.614 378.646 459.696 378.984 459.696ZM386.522 461.128C385.866 461.128 385.299 460.991 384.822 460.719C384.348 460.443 383.983 460.054 383.727 459.551C383.471 459.045 383.343 458.45 383.343 457.766C383.343 457.092 383.471 456.501 383.727 455.993C383.985 455.482 384.346 455.084 384.809 454.8C385.272 454.513 385.816 454.369 386.441 454.369C386.845 454.369 387.225 454.435 387.583 454.565C387.944 454.693 388.262 454.892 388.538 455.162C388.816 455.432 389.035 455.776 389.194 456.193C389.353 456.608 389.433 457.102 389.433 457.676V458.149H384.068V457.109H387.954C387.951 456.814 387.887 456.551 387.762 456.321C387.637 456.088 387.463 455.905 387.238 455.771C387.017 455.638 386.758 455.571 386.463 455.571C386.147 455.571 385.87 455.648 385.632 455.801C385.393 455.952 385.207 456.151 385.074 456.398C384.943 456.642 384.876 456.911 384.873 457.203V458.111C384.873 458.491 384.943 458.818 385.082 459.091C385.221 459.361 385.416 459.568 385.666 459.713C385.916 459.855 386.208 459.926 386.544 459.926C386.768 459.926 386.971 459.895 387.153 459.832C387.335 459.767 387.493 459.672 387.626 459.547C387.76 459.422 387.86 459.267 387.929 459.082L389.369 459.244C389.278 459.625 389.105 459.957 388.849 460.241C388.596 460.523 388.272 460.741 387.877 460.898C387.483 461.051 387.031 461.128 386.522 461.128Z" fill="black"/>
<rect x="140" y="112" width="112" height="47" rx="14" stroke="black" stroke-width="2"/>
<path d="M185.604 133.672C185.564 133.3 185.396 133.01 185.101 132.803C184.808 132.595 184.428 132.491 183.959 132.491C183.629 132.491 183.347 132.541 183.111 132.641C182.875 132.74 182.695 132.875 182.57 133.045C182.445 133.216 182.381 133.411 182.378 133.629C182.378 133.811 182.419 133.969 182.501 134.102C182.587 134.236 182.702 134.349 182.847 134.443C182.991 134.534 183.152 134.611 183.328 134.673C183.504 134.736 183.682 134.788 183.861 134.831L184.679 135.036C185.009 135.112 185.325 135.216 185.629 135.347C185.936 135.477 186.21 135.642 186.452 135.841C186.696 136.04 186.889 136.28 187.031 136.561C187.173 136.842 187.244 137.172 187.244 137.55C187.244 138.061 187.114 138.511 186.852 138.901C186.591 139.287 186.213 139.589 185.719 139.808C185.227 140.024 184.632 140.132 183.933 140.132C183.254 140.132 182.665 140.027 182.165 139.817C181.668 139.607 181.278 139.3 180.997 138.896C180.719 138.493 180.568 138.001 180.545 137.422H182.101C182.124 137.726 182.217 137.979 182.382 138.18C182.547 138.382 182.761 138.533 183.026 138.632C183.293 138.732 183.591 138.781 183.92 138.781C184.264 138.781 184.565 138.73 184.824 138.628C185.085 138.523 185.29 138.378 185.438 138.193C185.585 138.006 185.661 137.787 185.663 137.537C185.661 137.31 185.594 137.122 185.463 136.974C185.332 136.824 185.149 136.699 184.913 136.599C184.68 136.497 184.408 136.406 184.095 136.327L183.102 136.071C182.384 135.886 181.815 135.607 181.398 135.232C180.983 134.854 180.776 134.352 180.776 133.727C180.776 133.213 180.915 132.763 181.193 132.376C181.474 131.99 181.857 131.69 182.339 131.477C182.822 131.261 183.369 131.153 183.98 131.153C184.599 131.153 185.142 131.261 185.608 131.477C186.077 131.69 186.445 131.987 186.712 132.368C186.979 132.746 187.116 133.18 187.125 133.672H185.604ZM191.854 133.455V134.648H188.091V133.455H191.854ZM189.02 131.886H190.563V138.031C190.563 138.239 190.594 138.398 190.657 138.509C190.722 138.616 190.807 138.69 190.912 138.73C191.017 138.77 191.134 138.79 191.262 138.79C191.358 138.79 191.446 138.783 191.526 138.768C191.608 138.754 191.671 138.741 191.713 138.73L191.973 139.936C191.891 139.964 191.773 139.996 191.62 140.03C191.469 140.064 191.284 140.084 191.066 140.089C190.679 140.101 190.331 140.043 190.022 139.915C189.712 139.784 189.466 139.582 189.284 139.31C189.105 139.037 189.017 138.696 189.02 138.287V131.886ZM195.028 140.132C194.613 140.132 194.239 140.058 193.907 139.911C193.577 139.76 193.316 139.538 193.123 139.246C192.933 138.953 192.837 138.592 192.837 138.163C192.837 137.794 192.906 137.489 193.042 137.247C193.178 137.006 193.364 136.812 193.6 136.668C193.836 136.523 194.102 136.413 194.397 136.339C194.695 136.263 195.004 136.207 195.322 136.173C195.705 136.134 196.016 136.098 196.255 136.067C196.494 136.033 196.667 135.982 196.775 135.913C196.886 135.842 196.941 135.733 196.941 135.585V135.56C196.941 135.239 196.846 134.99 196.656 134.814C196.465 134.638 196.191 134.55 195.833 134.55C195.455 134.55 195.156 134.632 194.934 134.797C194.715 134.962 194.567 135.156 194.491 135.381L193.05 135.176C193.164 134.778 193.352 134.446 193.613 134.179C193.874 133.909 194.194 133.707 194.572 133.574C194.95 133.438 195.367 133.369 195.825 133.369C196.14 133.369 196.454 133.406 196.766 133.48C197.079 133.554 197.364 133.676 197.623 133.847C197.881 134.014 198.089 134.243 198.245 134.533C198.404 134.822 198.484 135.185 198.484 135.619V140H197.001V139.101H196.95C196.856 139.283 196.724 139.453 196.553 139.612C196.386 139.768 196.174 139.895 195.918 139.991C195.665 140.085 195.369 140.132 195.028 140.132ZM195.428 138.999C195.738 138.999 196.006 138.937 196.234 138.815C196.461 138.69 196.636 138.526 196.758 138.321C196.883 138.116 196.945 137.893 196.945 137.652V136.881C196.897 136.92 196.815 136.957 196.698 136.991C196.585 137.026 196.457 137.055 196.315 137.081C196.173 137.107 196.032 137.129 195.893 137.149C195.754 137.169 195.633 137.186 195.531 137.2C195.3 137.232 195.094 137.283 194.913 137.354C194.731 137.425 194.587 137.524 194.482 137.652C194.377 137.777 194.325 137.939 194.325 138.138C194.325 138.422 194.428 138.636 194.636 138.781C194.843 138.926 195.107 138.999 195.428 138.999ZM201.441 137.946L201.437 136.084H201.684L204.036 133.455H205.839L202.945 136.676H202.626L201.441 137.946ZM200.035 140V131.273H201.577V140H200.035ZM204.143 140L202.012 137.021L203.052 135.935L205.988 140H204.143ZM209.495 140.128C208.839 140.128 208.272 139.991 207.795 139.719C207.32 139.443 206.955 139.054 206.7 138.551C206.444 138.045 206.316 137.45 206.316 136.766C206.316 136.092 206.444 135.501 206.7 134.993C206.958 134.482 207.319 134.084 207.782 133.8C208.245 133.513 208.789 133.369 209.414 133.369C209.817 133.369 210.198 133.435 210.556 133.565C210.917 133.693 211.235 133.892 211.511 134.162C211.789 134.432 212.008 134.776 212.167 135.193C212.326 135.608 212.406 136.102 212.406 136.676V137.149H207.04V136.109H210.927C210.924 135.814 210.86 135.551 210.735 135.321C210.61 135.088 210.435 134.905 210.211 134.771C209.989 134.638 209.731 134.571 209.435 134.571C209.12 134.571 208.843 134.648 208.604 134.801C208.366 134.952 208.18 135.151 208.046 135.398C207.915 135.642 207.849 135.911 207.846 136.203V137.111C207.846 137.491 207.915 137.818 208.055 138.091C208.194 138.361 208.388 138.568 208.638 138.713C208.888 138.855 209.181 138.926 209.516 138.926C209.741 138.926 209.944 138.895 210.126 138.832C210.308 138.767 210.465 138.672 210.599 138.547C210.732 138.422 210.833 138.267 210.901 138.082L212.342 138.244C212.251 138.625 212.077 138.957 211.822 139.241C211.569 139.523 211.245 139.741 210.85 139.898C210.455 140.051 210.004 140.128 209.495 140.128Z" fill="black"/>
<rect x="140" y="540" width="112" height="47" rx="14" stroke="black" stroke-width="2"/>
<path d="M192.033 559.273V568H190.626L186.514 562.055H186.442V568H184.861V559.273H186.276L190.384 565.222H190.46V559.273H192.033ZM193.755 568V559.273H199.346V560.598H195.336V562.967H198.963V564.293H195.336V568H193.755ZM200.403 560.598V559.273H207.366V560.598H204.669V568H203.1V560.598H200.403Z" fill="black"/>
<path d="M196 157C194.333 157 193 158.333 193 160C193 161.667 194.333 163 196 163C197.667 163 199 161.667 199 160C199 158.333 197.667 157 196 157Z" fill="white"/>
<path d="M138.293 325.707C138.683 326.098 139.317 326.098 139.707 325.707L146.071 319.343C146.462 318.953 146.462 318.319 146.071 317.929C145.681 317.538 145.047 317.538 144.657 317.929L139 323.586L133.343 317.929C132.953 317.538 132.319 317.538 131.929 317.929C131.538 318.319 131.538 318.953 131.929 319.343L138.293 325.707ZM194 160C194 158.886 194.886 158 196 158V156C193.781 156 192 157.781 192 160H194ZM196 158C197.114 158 198 158.886 198 160H200C200 157.781 198.219 156 196 156V158ZM198 160C198 161.114 197.114 162 196 162V164C198.219 164 200 162.219 200 160H198ZM196 162C194.886 162 194 161.114 194 160H192C192 162.219 193.781 164 196 164V162ZM195 163V214H197V163H195ZM138 271V325H140V271H138ZM167.5 241.5C151.208 241.5 138 254.708 138 271H140C140 255.812 152.312 243.5 167.5 243.5V241.5ZM195 214C195 229.188 182.688 241.5 167.5 241.5V243.5C183.792 243.5 197 230.292 197 214H195Z" fill="black"/>
<path d="M139 371C137.333 371 136 372.333 136 374C136 375.667 137.333 377 139 377C140.667 377 142 375.667 142 374C142 372.333 140.667 371 139 371Z" fill="white"/>
<path d="M195.293 539.707C195.683 540.098 196.317 540.098 196.707 539.707L203.071 533.343C203.462 532.953 203.462 532.319 203.071 531.929C202.681 531.538 202.047 531.538 201.657 531.929L196 537.586L190.343 531.929C189.953 531.538 189.319 531.538 188.929 531.929C188.538 532.319 188.538 532.953 188.929 533.343L195.293 539.707ZM139 376C138.723 376 138.464 375.946 138.23 375.85L137.47 377.7C137.943 377.894 138.46 378 139 378V376ZM137.15 374.77C137.054 374.536 137 374.277 137 374H135C135 374.54 135.106 375.057 135.3 375.53L137.15 374.77ZM137 374C137 373.723 137.054 373.464 137.15 373.23L135.3 372.47C135.106 372.943 135 373.46 135 374H137ZM138.23 372.15C138.464 372.054 138.723 372 139 372V370C138.46 370 137.943 370.106 137.47 370.3L138.23 372.15ZM139 372C139.277 372 139.536 372.054 139.77 372.15L140.53 370.3C140.057 370.106 139.54 370 139 370V372ZM140.85 373.23C140.946 373.464 141 373.723 141 374H143C143 373.46 142.894 372.943 142.7 372.47L140.85 373.23ZM141 374C141 374.277 140.946 374.536 140.85 374.77L142.7 375.53C142.894 375.057 143 374.54 143 374H141ZM139.77 375.85C139.536 375.946 139.277 376 139 376V378C139.54 378 140.057 377.894 140.53 377.7L139.77 375.85ZM138 377V379.125H140V377H138ZM138 383.375V387.625H140V383.375H138ZM138 391.875V396.125H140V391.875H138ZM138 400.375V404.625H140V400.375H138ZM138 408.875V413.125H140V408.875H138ZM138 417.375V421.625H140V417.375H138ZM138 425.875V428H140V425.875H138ZM138 428C138 428.648 138.021 429.292 138.062 429.93L140.058 429.801C140.02 429.206 140 428.605 140 428H138ZM138.561 433.756C138.814 435.031 139.148 436.276 139.558 437.486L141.452 436.843C141.07 435.716 140.758 434.556 140.523 433.368L138.561 433.756ZM141.037 441.051C141.609 442.21 142.256 443.325 142.969 444.391L144.631 443.279C143.966 442.285 143.363 441.245 142.83 440.165L141.037 441.051ZM145.321 447.451C146.17 448.419 147.081 449.33 148.049 450.179L149.368 448.676C148.466 447.884 147.616 447.034 146.824 446.132L145.321 447.451ZM151.109 452.531C152.175 453.244 153.29 453.891 154.449 454.463L155.335 452.67C154.255 452.137 153.215 451.534 152.221 450.869L151.109 452.531ZM158.014 455.942C159.224 456.352 160.469 456.686 161.744 456.939L162.132 454.977C160.944 454.742 159.784 454.43 158.657 454.048L158.014 455.942ZM165.57 457.438C166.208 457.479 166.852 457.5 167.5 457.5V455.5C166.895 455.5 166.294 455.48 165.699 455.442L165.57 457.438ZM167.5 457.5C168.105 457.5 168.706 457.52 169.301 457.558L169.43 455.562C168.792 455.521 168.148 455.5 167.5 455.5V457.5ZM172.868 458.023C174.056 458.258 175.216 458.57 176.343 458.952L176.986 457.058C175.776 456.648 174.531 456.314 173.256 456.061L172.868 458.023ZM179.665 460.33C180.745 460.863 181.785 461.466 182.779 462.131L183.891 460.469C182.825 459.756 181.71 459.109 180.551 458.537L179.665 460.33ZM185.632 464.324C186.534 465.116 187.384 465.966 188.176 466.868L189.679 465.549C188.83 464.581 187.919 463.67 186.951 462.821L185.632 464.324ZM190.369 469.721C191.034 470.715 191.637 471.755 192.17 472.835L193.963 471.949C193.391 470.79 192.744 469.675 192.031 468.609L190.369 469.721ZM193.548 476.157C193.93 477.284 194.242 478.444 194.477 479.632L196.439 479.244C196.186 477.969 195.852 476.724 195.442 475.514L193.548 476.157ZM194.942 483.199C194.98 483.794 195 484.395 195 485H197C197 484.352 196.979 483.708 196.938 483.07L194.942 483.199ZM195 485V486.929H197V485H195ZM195 490.786V494.643H197V490.786H195ZM195 498.5V502.357H197V498.5H195ZM195 506.214V510.071H197V506.214H195ZM195 513.929V517.786H197V513.929H195ZM195 521.643V525.5H197V521.643H195ZM195 529.357V533.214H197V529.357H195ZM195 537.071V539H197V537.071H195Z" fill="black"/>
<rect x="-14" y="342" width="25" height="15" fill="#80ABFF"/>
<path d="M82 348C81.1667 348 80.5 348.667 80.5 349.5C80.5 350.333 81.1667 351 82 351C82.8333 351 83.5 350.333 83.5 349.5C83.5 348.667 82.8333 348 82 348Z" fill="white"/>
<path d="M80.5 349.5H11M80.5 349.5C80.5 348.667 81.1667 348 82 348C82.8333 348 83.5 348.667 83.5 349.5C83.5 350.333 82.8333 351 82 351C81.1667 351 80.5 350.333 80.5 349.5Z" stroke="black" stroke-width="2" stroke-linejoin="round" stroke-dasharray="0"/>
<path d="M196 346.5C194.333 346.5 193 347.833 193 349.5C193 351.167 194.333 352.5 196 352.5C197.667 352.5 199 351.167 199 349.5C199 347.833 197.667 346.5 196 346.5Z" fill="white"/>
<path d="M313.707 243.207C314.098 242.817 314.098 242.183 313.707 241.793L307.343 235.429C306.953 235.038 306.319 235.038 305.929 235.429C305.538 235.819 305.538 236.453 305.929 236.843L311.586 242.5L305.929 248.157C305.538 248.547 305.538 249.181 305.929 249.571C306.319 249.962 306.953 249.962 307.343 249.571L313.707 243.207ZM194 349.5C194 348.386 194.886 347.5 196 347.5V345.5C193.781 345.5 192 347.281 192 349.5H194ZM196 347.5C197.114 347.5 198 348.386 198 349.5H200C200 347.281 198.219 345.5 196 345.5V347.5ZM198 349.5C198 350.614 197.114 351.5 196 351.5V353.5C198.219 353.5 200 351.719 200 349.5H198ZM196 351.5C194.886 351.5 194 350.614 194 349.5H192C192 351.719 193.781 353.5 196 353.5V351.5ZM199 350.5H201V348.5H199V350.5ZM308 243.5H313V241.5H308V243.5ZM255.5 296C255.5 267.005 279.005 243.5 308 243.5V241.5C277.9 241.5 253.5 265.9 253.5 296H255.5ZM201 350.5C231.1 350.5 255.5 326.1 255.5 296H253.5C253.5 324.995 229.995 348.5 201 348.5V350.5Z" fill="black"/>
<path d="M196 346.5C194.333 346.5 193 347.833 193 349.5C193 351.167 194.333 352.5 196 352.5C197.667 352.5 199 351.167 199 349.5C199 347.833 197.667 346.5 196 346.5Z" fill="white"/>
<path d="M313.707 457.207C314.098 456.817 314.098 456.183 313.707 455.793L307.343 449.429C306.953 449.038 306.319 449.038 305.929 449.429C305.538 449.819 305.538 450.453 305.929 450.843L311.586 456.5L305.929 462.157C305.538 462.547 305.538 463.181 305.929 463.571C306.319 463.962 306.953 463.962 307.343 463.571L313.707 457.207ZM194 349.5C194 348.386 194.886 347.5 196 347.5V345.5C193.781 345.5 192 347.281 192 349.5H194ZM196 347.5C197.114 347.5 198 348.386 198 349.5H200C200 347.281 198.219 345.5 196 345.5V347.5ZM198 349.5C198 350.614 197.114 351.5 196 351.5V353.5C198.219 353.5 200 351.719 200 349.5H198ZM196 351.5C194.886 351.5 194 350.614 194 349.5H192C192 351.719 193.781 353.5 196 353.5V351.5ZM199 350.5H201V348.5H199V350.5ZM308 457.5H313V455.5H308V457.5ZM253.5 403C253.5 433.1 277.9 457.5 308 457.5V455.5C279.005 455.5 255.5 431.995 255.5 403H253.5ZM201 350.5C229.995 350.5 253.5 374.005 253.5 403H255.5C255.5 372.9 231.1 348.5 201 348.5V350.5Z" fill="black"/>
<path d="M370 266.373C368.326 266.373 366.987 267.512 366.987 268.937C366.987 270.361 368.326 271.5 370 271.5C371.674 271.5 373.013 270.361 373.013 268.937C373.013 267.512 371.674 266.373 370 266.373Z" fill="white"/>
<path d="M370 271.5C371.674 271.5 373.013 270.361 373.013 268.937C373.013 267.512 371.674 266.373 370 266.373C368.326 266.373 366.987 267.512 366.987 268.937C366.987 270.361 368.326 271.5 370 271.5ZM370 271.5L370 281.001L370 315.383V315.383C370 332.845 355.844 347.001 338.382 347.001H253" stroke="black" stroke-width="2" stroke-dasharray="0"/>
<path d="M369.987 432C368.314 432 366.975 430.799 366.975 429.297C366.975 427.796 368.314 426.595 369.987 426.595C371.661 426.595 373 427.796 373 429.297C373 430.799 371.661 432 369.987 432Z" fill="white"/>
<path d="M369.987 426.595C371.661 426.595 373 427.796 373 429.297C373 430.799 371.661 432 369.987 432C368.314 432 366.975 430.799 366.975 429.297C366.975 427.796 368.314 426.595 369.987 426.595ZM369.987 426.595L369.987 416.579L369.987 380.333V380.333C369.987 361.923 355.064 347 336.655 347H253" stroke="black" stroke-width="2" stroke-dasharray="0"/>
<path d="M427 239.5C425.333 239.5 424 240.833 424 242.5C424 244.167 425.333 245.5 427 245.5C428.667 245.5 430 244.167 430 242.5C430 240.833 428.667 239.5 427 239.5Z" fill="white"/>
<path d="M489.707 243.207C490.098 242.817 490.098 242.183 489.707 241.793L483.343 235.429C482.953 235.038 482.319 235.038 481.929 235.429C481.538 235.819 481.538 236.453 481.929 236.843L487.586 242.5L481.929 248.157C481.538 248.547 481.538 249.181 481.929 249.571C482.319 249.962 482.953 249.962 483.343 249.571L489.707 243.207ZM425 242.5C425 241.386 425.886 240.5 427 240.5V238.5C424.781 238.5 423 240.281 423 242.5H425ZM427 240.5C428.114 240.5 429 241.386 429 242.5H431C431 240.281 429.219 238.5 427 238.5V240.5ZM429 242.5C429 243.614 428.114 244.5 427 244.5V246.5C429.219 246.5 431 244.719 431 242.5H429ZM427 244.5C425.886 244.5 425 243.614 425 242.5H423C423 244.719 424.781 246.5 427 246.5V244.5ZM430 243.5H489V241.5H430V243.5Z" fill="black"/>
<path d="M603 239.5C601.333 239.5 600 240.833 600 242.5C600 244.167 601.333 245.5 603 245.5C604.667 245.5 606 244.167 606 242.5C606 240.833 604.667 239.5 603 239.5Z" fill="white"/>
<path d="M665.707 243.207C666.098 242.817 666.098 242.183 665.707 241.793L659.343 235.429C658.953 235.038 658.319 235.038 657.929 235.429C657.538 235.819 657.538 236.453 657.929 236.843L663.586 242.5L657.929 248.157C657.538 248.547 657.538 249.181 657.929 249.571C658.319 249.962 658.953 249.962 659.343 249.571L665.707 243.207ZM601 242.5C601 241.386 601.886 240.5 603 240.5V238.5C600.781 238.5 599 240.281 599 242.5H601ZM603 240.5C604.114 240.5 605 241.386 605 242.5H607C607 240.281 605.219 238.5 603 238.5V240.5ZM605 242.5C605 243.614 604.114 244.5 603 244.5V246.5C605.219 246.5 607 244.719 607 242.5H605ZM603 244.5C601.886 244.5 601 243.614 601 242.5H599C599 244.719 600.781 246.5 603 246.5V244.5ZM606 243.5H665V241.5H606V243.5Z" fill="black"/>
<path d="M665 404.5C663.333 404.5 662 405.833 662 407.5C662 409.167 663.333 410.5 665 410.5C666.667 410.5 668 409.167 668 407.5C668 405.833 666.667 404.5 665 404.5Z" fill="white"/>
<path d="M602.293 406.793C601.902 407.183 601.902 407.817 602.293 408.207L608.657 414.571C609.047 414.962 609.681 414.962 610.071 414.571C610.462 414.181 610.462 413.547 610.071 413.157L604.414 407.5L610.071 401.843C610.462 401.453 610.462 400.819 610.071 400.429C609.681 400.038 609.047 400.038 608.657 400.429L602.293 406.793ZM663 407.5C663 406.386 663.886 405.5 665 405.5V403.5C662.781 403.5 661 405.281 661 407.5H663ZM665 405.5C666.114 405.5 667 406.386 667 407.5H669C669 405.281 667.219 403.5 665 403.5V405.5ZM667 407.5C667 408.614 666.114 409.5 665 409.5V411.5C667.219 411.5 669 409.719 669 407.5H667ZM665 409.5C663.886 409.5 663 408.614 663 407.5H661C661 409.719 662.781 411.5 665 411.5V409.5ZM662 406.5H603V408.5H662V406.5Z" fill="black"/>
<path d="M489 404.5C487.333 404.5 486 405.833 486 407.5C486 409.167 487.333 410.5 489 410.5C490.667 410.5 492 409.167 492 407.5C492 405.833 490.667 404.5 489 404.5Z" fill="white"/>
<path d="M486 407.5C486 405.833 487.333 404.5 489 404.5C490.667 404.5 492 405.833 492 407.5C492 409.167 490.667 410.5 489 410.5C487.333 410.5 486 409.167 486 407.5ZM486 407.5H456H440C430.887 407.5 423.5 414.887 423.5 424V424V436" stroke="black" stroke-width="2" stroke-dasharray="0"/>
<path d="M424.5 475C422.833 475 421.5 476.333 421.5 478C421.5 479.667 422.833 481 424.5 481C426.167 481 427.5 479.667 427.5 478C427.5 476.333 426.167 475 424.5 475Z" fill="white"/>
<path d="M424.5 481C426.167 481 427.5 479.667 427.5 478C427.5 476.333 426.167 475 424.5 475C422.833 475 421.5 476.333 421.5 478C421.5 479.667 422.833 481 424.5 481ZM424.5 481V481C424.5 494.531 435.469 505.5 449 505.5H458H489" stroke="black" stroke-width="2" stroke-dasharray="0"/>
<path d="M603 502.5C601.333 502.5 600 503.833 600 505.5C600 507.167 601.333 508.5 603 508.5C604.667 508.5 606 507.167 606 505.5C606 503.833 604.667 502.5 603 502.5Z" fill="white"/>
<path d="M665.707 506.207C666.098 505.817 666.098 505.183 665.707 504.793L659.343 498.429C658.953 498.038 658.319 498.038 657.929 498.429C657.538 498.819 657.538 499.453 657.929 499.843L663.586 505.5L657.929 511.157C657.538 511.547 657.538 512.181 657.929 512.571C658.319 512.962 658.953 512.962 659.343 512.571L665.707 506.207ZM601 505.5C601 504.386 601.886 503.5 603 503.5V501.5C600.781 501.5 599 503.281 599 505.5H601ZM603 503.5C604.114 503.5 605 504.386 605 505.5H607C607 503.281 605.219 501.5 603 501.5V503.5ZM605 505.5C605 506.614 604.114 507.5 603 507.5V509.5C605.219 509.5 607 507.719 607 505.5H605ZM603 507.5C601.886 507.5 601 506.614 601 505.5H599C599 507.719 600.781 509.5 603 509.5V507.5ZM606 506.5H665V504.5H606V506.5Z" fill="black"/>
<path d="M779 502.5C777.333 502.5 776 503.833 776 505.5C776 507.167 777.333 508.5 779 508.5C780.667 508.5 782 507.167 782 505.5C782 503.833 780.667 502.5 779 502.5Z" fill="white"/>
<path d="M841.707 506.207C842.098 505.817 842.098 505.183 841.707 504.793L835.343 498.429C834.953 498.038 834.319 498.038 833.929 498.429C833.538 498.819 833.538 499.453 833.929 499.843L839.586 505.5L833.929 511.157C833.538 511.547 833.538 512.181 833.929 512.571C834.319 512.962 834.953 512.962 835.343 512.571L841.707 506.207ZM777 505.5C777 504.386 777.886 503.5 779 503.5V501.5C776.781 501.5 775 503.281 775 505.5H777ZM779 503.5C780.114 503.5 781 504.386 781 505.5H783C783 503.281 781.219 501.5 779 501.5V503.5ZM781 505.5C781 506.614 780.114 507.5 779 507.5V509.5C781.219 509.5 783 507.719 783 505.5H781ZM779 507.5C777.886 507.5 777 506.614 777 505.5H775C775 507.719 776.781 509.5 779 509.5V507.5ZM782 506.5H841V504.5H782V506.5Z" fill="black"/>
</g>
<defs>
<clipPath id="clip0_1041_408">
<rect width="1020" height="700" fill="white"/>
</clipPath>
</defs>
</svg>
