<svg width="2000" height="2000" viewBox="0 0 2000 2000" fill="none" xmlns="http://www.w3.org/2000/svg">
<path d="M1484 554.5C1484 577.42 1465.42 596 1442.5 596C1419.58 596 1401 577.42 1401 554.5C1401 531.58 1419.58 513 1442.5 513C1465.42 513 1484 531.58 1484 554.5Z" fill="url(#paint0_radial_384_3448)"/>
<path d="M1484 1333.5C1484 1356.42 1465.42 1375 1442.5 1375C1419.58 1375 1401 1356.42 1401 1333.5C1401 1310.58 1419.58 1292 1442.5 1292C1465.42 1292 1484 1310.58 1484 1333.5Z" fill="url(#paint1_radial_384_3448)"/>
<path d="M968 1673.5C968 1696.42 949.42 1715 926.5 1715C903.58 1715 885 1696.42 885 1673.5C885 1650.58 903.58 1632 926.5 1632C949.42 1632 968 1650.58 968 1673.5Z" fill="url(#paint2_radial_384_3448)"/>
<path d="M635 1333.5C635 1356.42 616.42 1375 593.5 1375C570.58 1375 552 1356.42 552 1333.5C552 1310.58 570.58 1292 593.5 1292C616.42 1292 635 1310.58 635 1333.5Z" fill="url(#paint3_radial_384_3448)"/>
<path d="M832 1374.5C832 1397.42 813.42 1416 790.5 1416C767.58 1416 749 1397.42 749 1374.5C749 1351.58 767.58 1333 790.5 1333C813.42 1333 832 1351.58 832 1374.5Z" fill="url(#paint4_radial_384_3448)"/>
<path d="M1375 1714.5C1375 1737.42 1356.42 1756 1333.5 1756C1310.58 1756 1292 1737.42 1292 1714.5C1292 1691.58 1310.58 1673 1333.5 1673C1356.42 1673 1375 1691.58 1375 1714.5Z" fill="url(#paint5_radial_384_3448)"/>
<path d="M635 781.5C635 804.42 616.42 823 593.5 823C570.58 823 552 804.42 552 781.5C552 758.58 570.58 740 593.5 740C616.42 740 635 758.58 635 781.5Z" fill="url(#paint6_radial_384_3448)"/>
<path d="M363 958.5C363 981.42 344.42 1000 321.5 1000C298.58 1000 280 981.42 280 958.5C280 935.58 298.58 917 321.5 917C344.42 917 363 935.58 363 958.5Z" fill="url(#paint7_radial_384_3448)"/>
<path d="M1612 916.5C1612 939.42 1593.42 958 1570.5 958C1547.58 958 1529 939.42 1529 916.5C1529 893.58 1547.58 875 1570.5 875C1593.42 875 1612 893.58 1612 916.5Z" fill="url(#paint8_radial_384_3448)"/>
<path d="M1592 1086C1592 1097.6 1582.6 1107 1571 1107C1559.4 1107 1550 1097.6 1550 1086C1550 1074.4 1559.4 1065 1571 1065C1582.6 1065 1592 1074.4 1592 1086Z" fill="url(#paint9_radial_384_3448)"/>
<path d="M1485 1231C1485 1242.6 1475.6 1252 1464 1252C1452.4 1252 1443 1242.6 1443 1231C1443 1219.4 1452.4 1210 1464 1210C1475.6 1210 1485 1219.4 1485 1231Z" fill="url(#paint10_radial_384_3448)"/>
<path d="M1706 1313C1706 1324.6 1696.6 1334 1685 1334C1673.4 1334 1664 1324.6 1664 1313C1664 1301.4 1673.4 1292 1685 1292C1696.6 1292 1706 1301.4 1706 1313Z" fill="url(#paint11_radial_384_3448)"/>
<path d="M1571 1437C1571 1448.6 1561.6 1458 1550 1458C1538.4 1458 1529 1448.6 1529 1437C1529 1425.4 1538.4 1416 1550 1416C1561.6 1416 1571 1425.4 1571 1437Z" fill="url(#paint12_radial_384_3448)"/>
<path d="M1355 1416C1355 1427.6 1345.6 1437 1334 1437C1322.4 1437 1313 1427.6 1313 1416C1313 1404.4 1322.4 1395 1334 1395C1345.6 1395 1355 1404.4 1355 1416Z" fill="url(#paint13_radial_384_3448)"/>
<path d="M1072 1861C1072 1872.6 1062.6 1882 1051 1882C1039.4 1882 1030 1872.6 1030 1861C1030 1849.4 1039.4 1840 1051 1840C1062.6 1840 1072 1849.4 1072 1861Z" fill="url(#paint14_radial_384_3448)"/>
<path d="M1073 1674C1073 1685.6 1063.6 1695 1052 1695C1040.4 1695 1031 1685.6 1031 1674C1031 1662.4 1040.4 1653 1052 1653C1063.6 1653 1073 1662.4 1073 1674Z" fill="url(#paint15_radial_384_3448)"/>
<path d="M749 1567C749 1578.6 739.598 1588 728 1588C716.402 1588 707 1578.6 707 1567C707 1555.4 716.402 1546 728 1546C739.598 1546 749 1555.4 749 1567Z" fill="url(#paint16_radial_384_3448)"/>
<path d="M1443 1652C1443 1663.6 1433.6 1673 1422 1673C1410.4 1673 1401 1663.6 1401 1652C1401 1640.4 1410.4 1631 1422 1631C1433.6 1631 1443 1640.4 1443 1652Z" fill="url(#paint17_radial_384_3448)"/>
<path d="M1249 1736C1249 1747.6 1239.6 1757 1228 1757C1216.4 1757 1207 1747.6 1207 1736C1207 1724.4 1216.4 1715 1228 1715C1239.6 1715 1249 1724.4 1249 1736Z" fill="url(#paint18_radial_384_3448)"/>
<path d="M1484 1882C1484 1893.6 1474.6 1903 1463 1903C1451.4 1903 1442 1893.6 1442 1882C1442 1870.4 1451.4 1861 1463 1861C1474.6 1861 1484 1870.4 1484 1882Z" fill="url(#paint19_radial_384_3448)"/>
<path d="M1706 1021C1706 1032.6 1696.6 1042 1685 1042C1673.4 1042 1664 1032.6 1664 1021C1664 1009.4 1673.4 1000 1685 1000C1696.6 1000 1706 1009.4 1706 1021Z" fill="url(#paint20_radial_384_3448)"/>
<path d="M1773 917C1773 928.598 1763.6 938 1752 938C1740.4 938 1731 928.598 1731 917C1731 905.402 1740.4 896 1752 896C1763.6 896 1773 905.402 1773 917Z" fill="url(#paint21_radial_384_3448)"/>
<path d="M1592 747C1592 758.598 1582.6 768 1571 768C1559.4 768 1550 758.598 1550 747C1550 735.402 1559.4 726 1571 726C1582.6 726 1592 735.402 1592 747Z" fill="url(#paint22_radial_384_3448)"/>
<path d="M1464 802C1464 813.598 1454.6 823 1443 823C1431.4 823 1422 813.598 1422 802C1422 790.402 1431.4 781 1443 781C1454.6 781 1464 790.402 1464 802Z" fill="url(#paint23_radial_384_3448)"/>
<path d="M1731 781C1731 792.598 1721.6 802 1710 802C1698.4 802 1689 792.598 1689 781C1689 769.402 1698.4 760 1710 760C1721.6 760 1731 769.402 1731 781Z" fill="url(#paint24_radial_384_3448)"/>
<path d="M1355 492C1355 503.598 1345.6 513 1334 513C1322.4 513 1313 503.598 1313 492C1313 480.402 1322.4 471 1334 471C1345.6 471 1355 480.402 1355 492Z" fill="url(#paint25_radial_384_3448)"/>
<path d="M1137 379C1137 390.598 1127.6 400 1116 400C1104.4 400 1095 390.598 1095 379C1095 367.402 1104.4 358 1116 358C1127.6 358 1137 367.402 1137 379Z" fill="url(#paint26_radial_384_3448)"/>
<path d="M948 555C948 566.598 938.598 576 927 576C915.402 576 906 566.598 906 555C906 543.402 915.402 534 927 534C938.598 534 948 543.402 948 555Z" fill="url(#paint27_radial_384_3448)"/>
<path d="M635 597C635 608.598 625.598 618 614 618C602.402 618 593 608.598 593 597C593 585.402 602.402 576 614 576C625.598 576 635 585.402 635 597Z" fill="url(#paint28_radial_384_3448)"/>
<path d="M749 471C749 482.598 739.598 492 728 492C716.402 492 707 482.598 707 471C707 459.402 716.402 450 728 450C739.598 450 749 459.402 749 471Z" fill="url(#paint29_radial_384_3448)"/>
<path d="M635 429C635 440.598 625.598 450 614 450C602.402 450 593 440.598 593 429C593 417.402 602.402 408 614 408C625.598 408 635 417.402 635 429Z" fill="url(#paint30_radial_384_3448)"/>
<path d="M384 823C384 834.598 374.598 844 363 844C351.402 844 342 834.598 342 823C342 811.402 351.402 802 363 802C374.598 802 384 811.402 384 823Z" fill="url(#paint31_radial_384_3448)"/>
<path d="M227 892C227 903.598 217.598 913 206 913C194.402 913 185 903.598 185 892C185 880.402 194.402 871 206 871C217.598 871 227 880.402 227 892Z" fill="url(#paint32_radial_384_3448)"/>
<path d="M206 1071C206 1082.6 196.598 1092 185 1092C173.402 1092 164 1082.6 164 1071C164 1059.4 173.402 1050 185 1050C196.598 1050 206 1059.4 206 1071Z" fill="url(#paint33_radial_384_3448)"/>
<path d="M384 1107C384 1118.6 374.598 1128 363 1128C351.402 1128 342 1118.6 342 1107C342 1095.4 351.402 1086 363 1086C374.598 1086 384 1095.4 384 1107Z" fill="url(#paint34_radial_384_3448)"/>
<path d="M322 1252C322 1263.6 312.598 1273 301 1273C289.402 1273 280 1263.6 280 1252C280 1240.4 289.402 1231 301 1231C312.598 1231 322 1240.4 322 1252Z" fill="url(#paint35_radial_384_3448)"/>
<path d="M471 1210C471 1221.6 461.598 1231 450 1231C438.402 1231 429 1221.6 429 1210C429 1198.4 438.402 1189 450 1189C461.598 1189 471 1198.4 471 1210Z" fill="url(#paint36_radial_384_3448)"/>
<path d="M248 699C248 710.598 238.598 720 227 720C215.402 720 206 710.598 206 699C206 687.402 215.402 678 227 678C238.598 678 248 687.402 248 699Z" fill="url(#paint37_radial_384_3448)"/>
<path d="M118 782C118 793.598 108.598 803 97 803C85.402 803 76 793.598 76 782C76 770.402 85.402 761 97 761C108.598 761 118 770.402 118 782Z" fill="url(#paint38_radial_384_3448)"/>
<path d="M832 314C832 325.598 822.598 335 811 335C799.402 335 790 325.598 790 314C790 302.402 799.402 293 811 293C822.598 293 832 302.402 832 314Z" fill="url(#paint39_radial_384_3448)"/>
<path d="M1052 82C1052 93.598 1042.6 103 1031 103C1019.4 103 1010 93.598 1010 82C1010 70.402 1019.4 61 1031 61C1042.6 61 1052 70.402 1052 82Z" fill="url(#paint40_radial_384_3448)"/>
<path d="M1464 421C1464 432.598 1454.6 442 1443 442C1431.4 442 1422 432.598 1422 421C1422 409.402 1431.4 400 1443 400C1454.6 400 1464 409.402 1464 421Z" fill="url(#paint41_radial_384_3448)"/>
<path d="M1571 492C1571 503.598 1561.6 513 1550 513C1538.4 513 1529 503.598 1529 492C1529 480.402 1538.4 471 1550 471C1561.6 471 1571 480.402 1571 492Z" fill="url(#paint42_radial_384_3448)"/>
<path d="M832 595.5C832 618.42 813.42 637 790.5 637C767.58 637 749 618.42 749 595.5C749 572.58 767.58 554 790.5 554C813.42 554 832 572.58 832 595.5Z" fill="url(#paint43_radial_384_3448)"/>
<path d="M1051 293.5C1051 316.42 1032.42 335 1009.5 335C986.58 335 968 316.42 968 293.5C968 270.58 986.58 252 1009.5 252C1032.42 252 1051 270.58 1051 293.5Z" fill="url(#paint44_radial_384_3448)"/>
<path d="M922 1674L993.5 998H1003.5L932 1674H922Z" fill="url(#paint45_radial_384_3448)"/>
<path d="M924 1668H1050.94V1677H929.5L924 1668Z" fill="url(#paint46_radial_384_3448)"/>
<path d="M1437 551.191L1547.66 489L1552.07 496.846L1446.2 556.342L1437 551.191Z" fill="url(#paint47_radial_384_3448)"/>
<path d="M1447 794.043L1564.08 745L1567.56 753.301L1455.55 800.219L1447 794.043Z" fill="url(#paint48_radial_384_3448)"/>
<path d="M1582.06 745L1705.62 774.092L1703.56 782.853L1585.35 755.021L1582.06 745Z" fill="url(#paint49_radial_384_3448)"/>
<path d="M1575 917.089L1745.39 910L1745.76 918.992L1582.76 925.774L1575 917.089Z" fill="url(#paint50_radial_384_3448)"/>
<path d="M1562.95 907L1690.95 1019.68L1685.01 1026.43L1562.55 918.638L1562.95 907Z" fill="url(#paint51_radial_384_3448)"/>
<path d="M1576.34 918.071L1575 1088.6L1566 1088.53L1567.28 925.389L1576.34 918.071Z" fill="url(#paint52_radial_384_3448)"/>
<path d="M1469.47 1232.42L1455.89 1317.15L1447 1315.72L1459.99 1234.67L1469.47 1232.42Z" fill="url(#paint53_radial_384_3448)"/>
<path d="M1441.95 1347.63L1343.14 1416.41L1338 1409.02L1432.53 1343.22L1441.95 1347.63Z" fill="url(#paint54_radial_384_3448)"/>
<path d="M1426.95 1652.39L1328.14 1721.16L1323 1713.78L1417.53 1647.98L1426.95 1652.39Z" fill="url(#paint55_radial_384_3448)"/>
<path d="M1345.64 1725.62L1226.17 1740.46L1225.06 1731.53L1339.35 1717.33L1345.64 1725.62Z" fill="url(#paint56_radial_384_3448)"/>
<path d="M1686.46 1319.96L1466.7 1334.84L1466.09 1325.86L1676.33 1311.62L1686.46 1319.96Z" fill="url(#paint57_radial_384_3448)"/>
<path d="M1464.36 1349L1549.54 1434.07L1543.18 1440.44L1461.69 1359.05L1464.36 1349Z" fill="url(#paint58_radial_384_3448)"/>
<path d="M1348.12 1727L1463.42 1876.07L1456.3 1881.57L1346 1738.97L1348.12 1727Z" fill="url(#paint59_radial_384_3448)"/>
<path d="M1437.46 552.516L1436.6 425.582L1445.6 425.521L1446.43 546.955L1437.46 552.516Z" fill="url(#paint60_radial_384_3448)"/>
<path d="M1568.17 912.074L1567 740.061L1576 740L1577.12 904.559L1568.17 912.074Z" fill="url(#paint61_radial_384_3448)"/>
<path d="M1440.38 568.627L1336 496.401L1341.12 489L1440.98 558.096L1440.38 568.627Z" fill="url(#paint62_radial_384_3448)"/>
<path d="M303.5 1248.5L587.936 1331V1340L309 1257.5L303.5 1248.5Z" fill="url(#paint63_radial_384_3448)"/>
<path d="M204 886.5L323 953V962L209.5 895.5L204 886.5Z" fill="url(#paint64_radial_384_3448)"/>
<path d="M227 698.5L360 813.5V822.5L227 707V698.5Z" fill="url(#paint65_radial_384_3448)"/>
<path d="M363 1102.5L464.436 1206.5V1215.5L363 1112.5V1102.5Z" fill="url(#paint66_radial_384_3448)"/>
<path d="M320.5 954.5L363.436 1102L355.5 1110L314 970L320.5 954.5Z" fill="url(#paint67_radial_384_3448)"/>
<path d="M327.139 968.242L192 1069.5L182.103 1064.11L310.441 966.324L327.139 968.242Z" fill="url(#paint68_radial_384_3448)"/>
<path d="M237 701L101.5 781.5L91.6038 776.111L220.302 699.082L237 701Z" fill="url(#paint69_radial_384_3448)"/>
<path d="M621.364 594.183L591.94 787.287L581.225 790.777L608.5 605L621.364 594.183Z" fill="url(#paint70_radial_384_3448)"/>
<path d="M735.49 468.369L805.249 608.188L797.661 614.804L729.651 480.705L735.49 468.369Z" fill="url(#paint71_radial_384_3448)"/>
<path d="M1012.07 274.223L1121.36 385.893L1116.17 394.518L1010.3 287.755L1012.07 274.223Z" fill="url(#paint72_radial_384_3448)"/>
<path d="M925.478 559.992L773.088 594.532L768.465 585.589L914.883 551.389L925.478 559.992Z" fill="url(#paint73_radial_384_3448)"/>
<path d="M1013.92 302.853L824.038 314.581L820.445 302.706L1003.1 290.196L1013.92 302.853Z" fill="url(#paint74_radial_384_3448)"/>
<path d="M816.01 312.092L622.824 427.997L612.975 419.983L801.209 311.976L816.01 312.092Z" fill="url(#paint75_radial_384_3448)"/>
<path d="M728 1562L929.5 1669V1678L733.5 1571L728 1562Z" fill="url(#paint76_radial_384_3448)"/>
<path d="M935 1676.5L1050.94 1856V1865L929.5 1683.5L935 1676.5Z" fill="url(#paint77_radial_384_3448)"/>
<path d="M992 1003L786.5 589.5H796.5L1002 1003H992Z" fill="url(#paint78_radial_384_3448)"/>
<path d="M1003.5 1016.5L1565.5 912L1574.5 919L1003.5 1025.5V1016.5Z" fill="url(#paint79_radial_384_3448)"/>
<path d="M1437 1335.5L997.5 1002H1007.5L1447 1335.5H1437Z" fill="url(#paint80_radial_384_3448)"/>
<path d="M1328 1724L1001.5 1004H1011.5L1338 1724H1328Z" fill="url(#paint81_radial_384_3448)"/>
<path d="M996 998L1432.5 554H1442.5L1006 998H996Z" fill="url(#paint82_radial_384_3448)"/>
<path d="M994.5 1000L1004.5 294.5H1014.5L1004.5 1000H994.5Z" fill="url(#paint83_radial_384_3448)"/>
<path d="M1005 294.795L1024.34 82.439L1034.33 82.8781L1014.99 295.234L1005 294.795Z" fill="url(#paint84_radial_384_3448)"/>
<path d="M329 951.506L998.818 1003L997.5 1011.26L330.087 961.446L329 951.506Z" fill="url(#paint85_radial_384_3448)"/>
<path d="M588 779.615L998.413 996.059L999.5 1006L589.087 789.556L588 779.615Z" fill="url(#paint86_radial_384_3448)"/>
<path d="M695.87 1022.59C710.063 1040.58 706.979 1066.68 688.982 1080.87C670.985 1095.06 644.891 1091.98 630.698 1073.98C616.505 1055.99 619.589 1029.89 637.586 1015.7C655.583 1001.51 681.678 1004.59 695.87 1022.59Z" fill="url(#paint87_radial_384_3448)"/>
<path d="M653.991 1049.87L1000.99 1010.87L1008 1018L661 1057L653.991 1049.87Z" fill="url(#paint88_radial_384_3448)"/>
<path d="M794 1354L996 993.5H1006L804 1354H794Z" fill="url(#paint89_radial_384_3448)"/>
<path d="M1117.09 603.256C1113.72 580.585 1129.37 559.474 1152.04 556.103C1174.71 552.733 1195.82 568.378 1199.19 591.049C1202.56 613.719 1186.92 634.83 1164.25 638.201C1141.57 641.572 1120.46 625.926 1117.09 603.256Z" fill="url(#paint90_radial_384_3448)"/>
<path d="M1157.69 617.944L1010.91 1004.23L1001.02 1005.7L1147.8 619.415L1157.69 617.944Z" fill="url(#paint91_radial_384_3448)"/>
<path d="M1285.35 1021.04C1306.64 1012.56 1330.78 1022.94 1339.26 1044.23C1347.75 1065.52 1337.37 1089.66 1316.08 1098.14C1294.79 1106.63 1270.65 1096.25 1262.16 1074.96C1253.68 1053.67 1264.06 1029.53 1285.35 1021.04Z" fill="url(#paint92_radial_384_3448)"/>
<path d="M1280.37 1063.93L996.703 1020.29L993 1011L1276.67 1054.64L1280.37 1063.93Z" fill="url(#paint93_radial_384_3448)"/>
<path d="M1140.78 896.875C1150.15 875.957 1174.7 866.594 1195.62 875.962C1216.54 885.33 1225.9 909.881 1216.53 930.799C1207.17 951.717 1182.61 961.08 1161.7 951.713C1140.78 942.345 1131.41 917.793 1140.78 896.875Z" fill="url(#paint94_radial_384_3448)"/>
<path d="M1176.5 918.5L1009.5 1018L1000.37 1013.91L1167.37 914.413L1176.5 918.5Z" fill="url(#paint95_radial_384_3448)"/>
<path d="M594 1332.5L989.5 998H999.5L604 1332.5H594Z" fill="url(#paint96_radial_384_3448)"/>
<g filter="url(#filter0_df_384_3448)">
<path d="M1030.09 921.838C1030.09 938.316 1016.73 951.675 1000.25 951.675C983.776 951.675 970.417 938.316 970.417 921.838C970.417 905.359 983.776 892 1000.25 892C1016.73 892 1030.09 905.359 1030.09 921.838Z" fill="black"/>
<path d="M1000.63 988.972C1017.13 988.972 1031.12 978.26 1036.04 963.411C1038.11 957.154 1043.27 951.675 1049.86 951.675H1057.78C1062.87 951.675 1067.39 954.892 1069.06 959.69L1114.84 1091.35C1117.53 1099.1 1111.78 1107.2 1103.57 1107.2C1097.08 1107.2 1091.3 1103.09 1089.19 1096.95L1060.09 1012.47C1058.44 1007.68 1051.36 1008.88 1051.38 1013.95L1051.66 1081.74C1051.72 1095.79 1040.35 1107.2 1026.3 1107.2H974.204C960.156 1107.2 948.785 1095.78 948.842 1081.74L949.121 1013.95C949.142 1008.89 942.062 1007.69 940.414 1012.47L911.307 1096.96C909.196 1103.09 903.427 1107.2 896.945 1107.2C888.734 1107.2 882.975 1099.1 885.672 1091.35L931.452 959.69C933.121 954.892 937.645 951.675 942.725 951.675H951.396C957.987 951.675 963.142 957.154 965.215 963.411C970.133 978.26 984.13 988.972 1000.63 988.972Z" fill="black"/>
</g>
<defs>
<filter id="filter0_df_384_3448" x="877" y="884" width="246.51" height="231.203" filterUnits="userSpaceOnUse" color-interpolation-filters="sRGB">
<feFlood flood-opacity="0" result="BackgroundImageFix"/>
<feColorMatrix in="SourceAlpha" type="matrix" values="0 0 0 0 0 0 0 0 0 0 0 0 0 0 0 0 0 0 127 0" result="hardAlpha"/>
<feOffset dy="4"/>
<feGaussianBlur stdDeviation="2"/>
<feComposite in2="hardAlpha" operator="out"/>
<feColorMatrix type="matrix" values="0 0 0 0 0 0 0 0 0 0 0 0 0 0 0 0 0 0 0.25 0"/>
<feBlend mode="normal" in2="BackgroundImageFix" result="effect1_dropShadow_384_3448"/>
<feBlend mode="normal" in="SourceGraphic" in2="effect1_dropShadow_384_3448" result="shape"/>
<feGaussianBlur stdDeviation="4" result="effect2_foregroundBlur_384_3448"/>
</filter>
<radialGradient id="paint0_radial_384_3448" cx="0" cy="0" r="1" gradientUnits="userSpaceOnUse" gradientTransform="translate(999 1019) rotate(75.1137) scale(613.076 564.816)">
<stop/>
<stop offset="1" stop-color="#BEC0C2"/>
</radialGradient>
<radialGradient id="paint1_radial_384_3448" cx="0" cy="0" r="1" gradientUnits="userSpaceOnUse" gradientTransform="translate(999 1019) rotate(75.1137) scale(613.076 564.816)">
<stop/>
<stop offset="1" stop-color="#BEC0C2"/>
</radialGradient>
<radialGradient id="paint2_radial_384_3448" cx="0" cy="0" r="1" gradientUnits="userSpaceOnUse" gradientTransform="translate(999 1019) rotate(75.1137) scale(613.076 564.816)">
<stop/>
<stop offset="1" stop-color="#BEC0C2"/>
</radialGradient>
<radialGradient id="paint3_radial_384_3448" cx="0" cy="0" r="1" gradientUnits="userSpaceOnUse" gradientTransform="translate(999 1019) rotate(75.1137) scale(613.076 564.816)">
<stop/>
<stop offset="1" stop-color="#BEC0C2"/>
</radialGradient>
<radialGradient id="paint4_radial_384_3448" cx="0" cy="0" r="1" gradientUnits="userSpaceOnUse" gradientTransform="translate(999 1019) rotate(75.1137) scale(613.076 564.816)">
<stop/>
<stop offset="1" stop-color="#BEC0C2"/>
</radialGradient>
<radialGradient id="paint5_radial_384_3448" cx="0" cy="0" r="1" gradientUnits="userSpaceOnUse" gradientTransform="translate(999 1019) rotate(75.1137) scale(613.076 564.816)">
<stop/>
<stop offset="1" stop-color="#BEC0C2"/>
</radialGradient>
<radialGradient id="paint6_radial_384_3448" cx="0" cy="0" r="1" gradientUnits="userSpaceOnUse" gradientTransform="translate(999 1019) rotate(75.1137) scale(613.076 564.816)">
<stop/>
<stop offset="1" stop-color="#BEC0C2"/>
</radialGradient>
<radialGradient id="paint7_radial_384_3448" cx="0" cy="0" r="1" gradientUnits="userSpaceOnUse" gradientTransform="translate(999 1019) rotate(75.1137) scale(613.076 564.816)">
<stop/>
<stop offset="1" stop-color="#BEC0C2"/>
</radialGradient>
<radialGradient id="paint8_radial_384_3448" cx="0" cy="0" r="1" gradientUnits="userSpaceOnUse" gradientTransform="translate(999 1019) rotate(75.1137) scale(613.076 564.816)">
<stop/>
<stop offset="1" stop-color="#BEC0C2"/>
</radialGradient>
<radialGradient id="paint9_radial_384_3448" cx="0" cy="0" r="1" gradientUnits="userSpaceOnUse" gradientTransform="translate(999 1019) rotate(75.1137) scale(613.076 564.816)">
<stop/>
<stop offset="1" stop-color="#BEC0C2"/>
</radialGradient>
<radialGradient id="paint10_radial_384_3448" cx="0" cy="0" r="1" gradientUnits="userSpaceOnUse" gradientTransform="translate(999 1019) rotate(75.1137) scale(613.076 564.816)">
<stop/>
<stop offset="1" stop-color="#BEC0C2"/>
</radialGradient>
<radialGradient id="paint11_radial_384_3448" cx="0" cy="0" r="1" gradientUnits="userSpaceOnUse" gradientTransform="translate(999 1019) rotate(75.1137) scale(613.076 564.816)">
<stop/>
<stop offset="1" stop-color="#BEC0C2"/>
</radialGradient>
<radialGradient id="paint12_radial_384_3448" cx="0" cy="0" r="1" gradientUnits="userSpaceOnUse" gradientTransform="translate(999 1019) rotate(75.1137) scale(613.076 564.816)">
<stop/>
<stop offset="1" stop-color="#BEC0C2"/>
</radialGradient>
<radialGradient id="paint13_radial_384_3448" cx="0" cy="0" r="1" gradientUnits="userSpaceOnUse" gradientTransform="translate(999 1019) rotate(75.1137) scale(613.076 564.816)">
<stop/>
<stop offset="1" stop-color="#BEC0C2"/>
</radialGradient>
<radialGradient id="paint14_radial_384_3448" cx="0" cy="0" r="1" gradientUnits="userSpaceOnUse" gradientTransform="translate(999 1019) rotate(75.1137) scale(613.076 564.816)">
<stop/>
<stop offset="1" stop-color="#BEC0C2"/>
</radialGradient>
<radialGradient id="paint15_radial_384_3448" cx="0" cy="0" r="1" gradientUnits="userSpaceOnUse" gradientTransform="translate(999 1019) rotate(75.1137) scale(613.076 564.816)">
<stop/>
<stop offset="1" stop-color="#BEC0C2"/>
</radialGradient>
<radialGradient id="paint16_radial_384_3448" cx="0" cy="0" r="1" gradientUnits="userSpaceOnUse" gradientTransform="translate(999 1019) rotate(75.1137) scale(613.076 564.816)">
<stop/>
<stop offset="1" stop-color="#BEC0C2"/>
</radialGradient>
<radialGradient id="paint17_radial_384_3448" cx="0" cy="0" r="1" gradientUnits="userSpaceOnUse" gradientTransform="translate(999 1019) rotate(75.1137) scale(613.076 564.816)">
<stop/>
<stop offset="1" stop-color="#BEC0C2"/>
</radialGradient>
<radialGradient id="paint18_radial_384_3448" cx="0" cy="0" r="1" gradientUnits="userSpaceOnUse" gradientTransform="translate(999 1019) rotate(75.1137) scale(613.076 564.816)">
<stop/>
<stop offset="1" stop-color="#BEC0C2"/>
</radialGradient>
<radialGradient id="paint19_radial_384_3448" cx="0" cy="0" r="1" gradientUnits="userSpaceOnUse" gradientTransform="translate(999 1019) rotate(75.1137) scale(613.076 564.816)">
<stop/>
<stop offset="1" stop-color="#BEC0C2"/>
</radialGradient>
<radialGradient id="paint20_radial_384_3448" cx="0" cy="0" r="1" gradientUnits="userSpaceOnUse" gradientTransform="translate(999 1019) rotate(75.1137) scale(613.076 564.816)">
<stop/>
<stop offset="1" stop-color="#BEC0C2"/>
</radialGradient>
<radialGradient id="paint21_radial_384_3448" cx="0" cy="0" r="1" gradientUnits="userSpaceOnUse" gradientTransform="translate(999 1019) rotate(75.1137) scale(613.076 564.816)">
<stop/>
<stop offset="1" stop-color="#BEC0C2"/>
</radialGradient>
<radialGradient id="paint22_radial_384_3448" cx="0" cy="0" r="1" gradientUnits="userSpaceOnUse" gradientTransform="translate(999 1019) rotate(75.1137) scale(613.076 564.816)">
<stop/>
<stop offset="1" stop-color="#BEC0C2"/>
</radialGradient>
<radialGradient id="paint23_radial_384_3448" cx="0" cy="0" r="1" gradientUnits="userSpaceOnUse" gradientTransform="translate(999 1019) rotate(75.1137) scale(613.076 564.816)">
<stop/>
<stop offset="1" stop-color="#BEC0C2"/>
</radialGradient>
<radialGradient id="paint24_radial_384_3448" cx="0" cy="0" r="1" gradientUnits="userSpaceOnUse" gradientTransform="translate(999 1019) rotate(75.1137) scale(613.076 564.816)">
<stop/>
<stop offset="1" stop-color="#BEC0C2"/>
</radialGradient>
<radialGradient id="paint25_radial_384_3448" cx="0" cy="0" r="1" gradientUnits="userSpaceOnUse" gradientTransform="translate(999 1019) rotate(75.1137) scale(613.076 564.816)">
<stop/>
<stop offset="1" stop-color="#BEC0C2"/>
</radialGradient>
<radialGradient id="paint26_radial_384_3448" cx="0" cy="0" r="1" gradientUnits="userSpaceOnUse" gradientTransform="translate(999 1019) rotate(75.1137) scale(613.076 564.816)">
<stop/>
<stop offset="1" stop-color="#BEC0C2"/>
</radialGradient>
<radialGradient id="paint27_radial_384_3448" cx="0" cy="0" r="1" gradientUnits="userSpaceOnUse" gradientTransform="translate(999 1019) rotate(75.1137) scale(613.076 564.816)">
<stop/>
<stop offset="1" stop-color="#BEC0C2"/>
</radialGradient>
<radialGradient id="paint28_radial_384_3448" cx="0" cy="0" r="1" gradientUnits="userSpaceOnUse" gradientTransform="translate(999 1019) rotate(75.1137) scale(613.076 564.816)">
<stop/>
<stop offset="1" stop-color="#BEC0C2"/>
</radialGradient>
<radialGradient id="paint29_radial_384_3448" cx="0" cy="0" r="1" gradientUnits="userSpaceOnUse" gradientTransform="translate(999 1019) rotate(75.1137) scale(613.076 564.816)">
<stop/>
<stop offset="1" stop-color="#BEC0C2"/>
</radialGradient>
<radialGradient id="paint30_radial_384_3448" cx="0" cy="0" r="1" gradientUnits="userSpaceOnUse" gradientTransform="translate(999 1019) rotate(75.1137) scale(613.076 564.816)">
<stop/>
<stop offset="1" stop-color="#BEC0C2"/>
</radialGradient>
<radialGradient id="paint31_radial_384_3448" cx="0" cy="0" r="1" gradientUnits="userSpaceOnUse" gradientTransform="translate(999 1019) rotate(75.1137) scale(613.076 564.816)">
<stop/>
<stop offset="1" stop-color="#BEC0C2"/>
</radialGradient>
<radialGradient id="paint32_radial_384_3448" cx="0" cy="0" r="1" gradientUnits="userSpaceOnUse" gradientTransform="translate(999 1019) rotate(75.1137) scale(613.076 564.816)">
<stop/>
<stop offset="1" stop-color="#BEC0C2"/>
</radialGradient>
<radialGradient id="paint33_radial_384_3448" cx="0" cy="0" r="1" gradientUnits="userSpaceOnUse" gradientTransform="translate(999 1019) rotate(75.1137) scale(613.076 564.816)">
<stop/>
<stop offset="1" stop-color="#BEC0C2"/>
</radialGradient>
<radialGradient id="paint34_radial_384_3448" cx="0" cy="0" r="1" gradientUnits="userSpaceOnUse" gradientTransform="translate(999 1019) rotate(75.1137) scale(613.076 564.816)">
<stop/>
<stop offset="1" stop-color="#BEC0C2"/>
</radialGradient>
<radialGradient id="paint35_radial_384_3448" cx="0" cy="0" r="1" gradientUnits="userSpaceOnUse" gradientTransform="translate(999 1019) rotate(75.1137) scale(613.076 564.816)">
<stop/>
<stop offset="1" stop-color="#BEC0C2"/>
</radialGradient>
<radialGradient id="paint36_radial_384_3448" cx="0" cy="0" r="1" gradientUnits="userSpaceOnUse" gradientTransform="translate(999 1019) rotate(75.1137) scale(613.076 564.816)">
<stop/>
<stop offset="1" stop-color="#BEC0C2"/>
</radialGradient>
<radialGradient id="paint37_radial_384_3448" cx="0" cy="0" r="1" gradientUnits="userSpaceOnUse" gradientTransform="translate(999 1019) rotate(75.1137) scale(613.076 564.816)">
<stop/>
<stop offset="1" stop-color="#BEC0C2"/>
</radialGradient>
<radialGradient id="paint38_radial_384_3448" cx="0" cy="0" r="1" gradientUnits="userSpaceOnUse" gradientTransform="translate(999 1019) rotate(75.1137) scale(613.076 564.816)">
<stop/>
<stop offset="1" stop-color="#BEC0C2"/>
</radialGradient>
<radialGradient id="paint39_radial_384_3448" cx="0" cy="0" r="1" gradientUnits="userSpaceOnUse" gradientTransform="translate(999 1019) rotate(75.1137) scale(613.076 564.816)">
<stop/>
<stop offset="1" stop-color="#BEC0C2"/>
</radialGradient>
<radialGradient id="paint40_radial_384_3448" cx="0" cy="0" r="1" gradientUnits="userSpaceOnUse" gradientTransform="translate(999 1019) rotate(75.1137) scale(613.076 564.816)">
<stop/>
<stop offset="1" stop-color="#BEC0C2"/>
</radialGradient>
<radialGradient id="paint41_radial_384_3448" cx="0" cy="0" r="1" gradientUnits="userSpaceOnUse" gradientTransform="translate(999 1019) rotate(75.1137) scale(613.076 564.816)">
<stop/>
<stop offset="1" stop-color="#BEC0C2"/>
</radialGradient>
<radialGradient id="paint42_radial_384_3448" cx="0" cy="0" r="1" gradientUnits="userSpaceOnUse" gradientTransform="translate(999 1019) rotate(75.1137) scale(613.076 564.816)">
<stop/>
<stop offset="1" stop-color="#BEC0C2"/>
</radialGradient>
<radialGradient id="paint43_radial_384_3448" cx="0" cy="0" r="1" gradientUnits="userSpaceOnUse" gradientTransform="translate(999 1019) rotate(75.1137) scale(613.076 564.816)">
<stop/>
<stop offset="1" stop-color="#BEC0C2"/>
</radialGradient>
<radialGradient id="paint44_radial_384_3448" cx="0" cy="0" r="1" gradientUnits="userSpaceOnUse" gradientTransform="translate(999 1019) rotate(75.1137) scale(613.076 564.816)">
<stop/>
<stop offset="1" stop-color="#BEC0C2"/>
</radialGradient>
<radialGradient id="paint45_radial_384_3448" cx="0" cy="0" r="1" gradientUnits="userSpaceOnUse" gradientTransform="translate(999 1019) rotate(75.1137) scale(613.076 564.816)">
<stop/>
<stop offset="1" stop-color="#BEC0C2"/>
</radialGradient>
<radialGradient id="paint46_radial_384_3448" cx="0" cy="0" r="1" gradientUnits="userSpaceOnUse" gradientTransform="translate(999 1019) rotate(75.1137) scale(613.076 564.816)">
<stop/>
<stop offset="1" stop-color="#BEC0C2"/>
</radialGradient>
<radialGradient id="paint47_radial_384_3448" cx="0" cy="0" r="1" gradientUnits="userSpaceOnUse" gradientTransform="translate(999 1019) rotate(75.1137) scale(613.076 564.816)">
<stop/>
<stop offset="1" stop-color="#BEC0C2"/>
</radialGradient>
<radialGradient id="paint48_radial_384_3448" cx="0" cy="0" r="1" gradientUnits="userSpaceOnUse" gradientTransform="translate(999 1019) rotate(75.1137) scale(613.076 564.816)">
<stop/>
<stop offset="1" stop-color="#BEC0C2"/>
</radialGradient>
<radialGradient id="paint49_radial_384_3448" cx="0" cy="0" r="1" gradientUnits="userSpaceOnUse" gradientTransform="translate(999 1019) rotate(75.1137) scale(613.076 564.816)">
<stop/>
<stop offset="1" stop-color="#BEC0C2"/>
</radialGradient>
<radialGradient id="paint50_radial_384_3448" cx="0" cy="0" r="1" gradientUnits="userSpaceOnUse" gradientTransform="translate(999 1019) rotate(75.1137) scale(613.076 564.816)">
<stop/>
<stop offset="1" stop-color="#BEC0C2"/>
</radialGradient>
<radialGradient id="paint51_radial_384_3448" cx="0" cy="0" r="1" gradientUnits="userSpaceOnUse" gradientTransform="translate(999 1019) rotate(75.1137) scale(613.076 564.816)">
<stop/>
<stop offset="1" stop-color="#BEC0C2"/>
</radialGradient>
<radialGradient id="paint52_radial_384_3448" cx="0" cy="0" r="1" gradientUnits="userSpaceOnUse" gradientTransform="translate(999 1019) rotate(75.1137) scale(613.076 564.816)">
<stop/>
<stop offset="1" stop-color="#BEC0C2"/>
</radialGradient>
<radialGradient id="paint53_radial_384_3448" cx="0" cy="0" r="1" gradientUnits="userSpaceOnUse" gradientTransform="translate(999 1019) rotate(75.1137) scale(613.076 564.816)">
<stop/>
<stop offset="1" stop-color="#BEC0C2"/>
</radialGradient>
<radialGradient id="paint54_radial_384_3448" cx="0" cy="0" r="1" gradientUnits="userSpaceOnUse" gradientTransform="translate(999 1019) rotate(75.1137) scale(613.076 564.816)">
<stop/>
<stop offset="1" stop-color="#BEC0C2"/>
</radialGradient>
<radialGradient id="paint55_radial_384_3448" cx="0" cy="0" r="1" gradientUnits="userSpaceOnUse" gradientTransform="translate(999 1019) rotate(75.1137) scale(613.076 564.816)">
<stop/>
<stop offset="1" stop-color="#BEC0C2"/>
</radialGradient>
<radialGradient id="paint56_radial_384_3448" cx="0" cy="0" r="1" gradientUnits="userSpaceOnUse" gradientTransform="translate(999 1019) rotate(75.1137) scale(613.076 564.816)">
<stop/>
<stop offset="1" stop-color="#BEC0C2"/>
</radialGradient>
<radialGradient id="paint57_radial_384_3448" cx="0" cy="0" r="1" gradientUnits="userSpaceOnUse" gradientTransform="translate(999 1019) rotate(75.1137) scale(613.076 564.816)">
<stop/>
<stop offset="1" stop-color="#BEC0C2"/>
</radialGradient>
<radialGradient id="paint58_radial_384_3448" cx="0" cy="0" r="1" gradientUnits="userSpaceOnUse" gradientTransform="translate(999 1019) rotate(75.1137) scale(613.076 564.816)">
<stop/>
<stop offset="1" stop-color="#BEC0C2"/>
</radialGradient>
<radialGradient id="paint59_radial_384_3448" cx="0" cy="0" r="1" gradientUnits="userSpaceOnUse" gradientTransform="translate(999 1019) rotate(75.1137) scale(613.076 564.816)">
<stop/>
<stop offset="1" stop-color="#BEC0C2"/>
</radialGradient>
<radialGradient id="paint60_radial_384_3448" cx="0" cy="0" r="1" gradientUnits="userSpaceOnUse" gradientTransform="translate(999 1019) rotate(75.1137) scale(613.076 564.816)">
<stop/>
<stop offset="1" stop-color="#BEC0C2"/>
</radialGradient>
<radialGradient id="paint61_radial_384_3448" cx="0" cy="0" r="1" gradientUnits="userSpaceOnUse" gradientTransform="translate(999 1019) rotate(75.1137) scale(613.076 564.816)">
<stop/>
<stop offset="1" stop-color="#BEC0C2"/>
</radialGradient>
<radialGradient id="paint62_radial_384_3448" cx="0" cy="0" r="1" gradientUnits="userSpaceOnUse" gradientTransform="translate(999 1019) rotate(75.1137) scale(613.076 564.816)">
<stop/>
<stop offset="1" stop-color="#BEC0C2"/>
</radialGradient>
<radialGradient id="paint63_radial_384_3448" cx="0" cy="0" r="1" gradientUnits="userSpaceOnUse" gradientTransform="translate(999 1019) rotate(75.1137) scale(613.076 564.816)">
<stop/>
<stop offset="1" stop-color="#BEC0C2"/>
</radialGradient>
<radialGradient id="paint64_radial_384_3448" cx="0" cy="0" r="1" gradientUnits="userSpaceOnUse" gradientTransform="translate(999 1019) rotate(75.1137) scale(613.076 564.816)">
<stop/>
<stop offset="1" stop-color="#BEC0C2"/>
</radialGradient>
<radialGradient id="paint65_radial_384_3448" cx="0" cy="0" r="1" gradientUnits="userSpaceOnUse" gradientTransform="translate(999 1019) rotate(75.1137) scale(613.076 564.816)">
<stop/>
<stop offset="1" stop-color="#BEC0C2"/>
</radialGradient>
<radialGradient id="paint66_radial_384_3448" cx="0" cy="0" r="1" gradientUnits="userSpaceOnUse" gradientTransform="translate(999 1019) rotate(75.1137) scale(613.076 564.816)">
<stop/>
<stop offset="1" stop-color="#BEC0C2"/>
</radialGradient>
<radialGradient id="paint67_radial_384_3448" cx="0" cy="0" r="1" gradientUnits="userSpaceOnUse" gradientTransform="translate(999 1019) rotate(75.1137) scale(613.076 564.816)">
<stop/>
<stop offset="1" stop-color="#BEC0C2"/>
</radialGradient>
<radialGradient id="paint68_radial_384_3448" cx="0" cy="0" r="1" gradientUnits="userSpaceOnUse" gradientTransform="translate(999 1019) rotate(75.1137) scale(613.076 564.816)">
<stop/>
<stop offset="1" stop-color="#BEC0C2"/>
</radialGradient>
<radialGradient id="paint69_radial_384_3448" cx="0" cy="0" r="1" gradientUnits="userSpaceOnUse" gradientTransform="translate(999 1019) rotate(75.1137) scale(613.076 564.816)">
<stop/>
<stop offset="1" stop-color="#BEC0C2"/>
</radialGradient>
<radialGradient id="paint70_radial_384_3448" cx="0" cy="0" r="1" gradientUnits="userSpaceOnUse" gradientTransform="translate(999 1019) rotate(75.1137) scale(613.076 564.816)">
<stop/>
<stop offset="1" stop-color="#BEC0C2"/>
</radialGradient>
<radialGradient id="paint71_radial_384_3448" cx="0" cy="0" r="1" gradientUnits="userSpaceOnUse" gradientTransform="translate(999 1019) rotate(75.1137) scale(613.076 564.816)">
<stop/>
<stop offset="1" stop-color="#BEC0C2"/>
</radialGradient>
<radialGradient id="paint72_radial_384_3448" cx="0" cy="0" r="1" gradientUnits="userSpaceOnUse" gradientTransform="translate(999 1019) rotate(75.1137) scale(613.076 564.816)">
<stop/>
<stop offset="1" stop-color="#BEC0C2"/>
</radialGradient>
<radialGradient id="paint73_radial_384_3448" cx="0" cy="0" r="1" gradientUnits="userSpaceOnUse" gradientTransform="translate(999 1019) rotate(75.1137) scale(613.076 564.816)">
<stop/>
<stop offset="1" stop-color="#BEC0C2"/>
</radialGradient>
<radialGradient id="paint74_radial_384_3448" cx="0" cy="0" r="1" gradientUnits="userSpaceOnUse" gradientTransform="translate(999 1019) rotate(75.1137) scale(613.076 564.816)">
<stop/>
<stop offset="1" stop-color="#BEC0C2"/>
</radialGradient>
<radialGradient id="paint75_radial_384_3448" cx="0" cy="0" r="1" gradientUnits="userSpaceOnUse" gradientTransform="translate(999 1019) rotate(75.1137) scale(613.076 564.816)">
<stop/>
<stop offset="1" stop-color="#BEC0C2"/>
</radialGradient>
<radialGradient id="paint76_radial_384_3448" cx="0" cy="0" r="1" gradientUnits="userSpaceOnUse" gradientTransform="translate(999 1019) rotate(75.1137) scale(613.076 564.816)">
<stop/>
<stop offset="1" stop-color="#BEC0C2"/>
</radialGradient>
<radialGradient id="paint77_radial_384_3448" cx="0" cy="0" r="1" gradientUnits="userSpaceOnUse" gradientTransform="translate(999 1019) rotate(75.1137) scale(613.076 564.816)">
<stop/>
<stop offset="1" stop-color="#BEC0C2"/>
</radialGradient>
<radialGradient id="paint78_radial_384_3448" cx="0" cy="0" r="1" gradientUnits="userSpaceOnUse" gradientTransform="translate(999 1019) rotate(75.1137) scale(613.076 564.816)">
<stop/>
<stop offset="1" stop-color="#BEC0C2"/>
</radialGradient>
<radialGradient id="paint79_radial_384_3448" cx="0" cy="0" r="1" gradientUnits="userSpaceOnUse" gradientTransform="translate(999 1019) rotate(75.1137) scale(613.076 564.816)">
<stop/>
<stop offset="1" stop-color="#BEC0C2"/>
</radialGradient>
<radialGradient id="paint80_radial_384_3448" cx="0" cy="0" r="1" gradientUnits="userSpaceOnUse" gradientTransform="translate(999 1019) rotate(75.1137) scale(613.076 564.816)">
<stop/>
<stop offset="1" stop-color="#BEC0C2"/>
</radialGradient>
<radialGradient id="paint81_radial_384_3448" cx="0" cy="0" r="1" gradientUnits="userSpaceOnUse" gradientTransform="translate(999 1019) rotate(75.1137) scale(613.076 564.816)">
<stop/>
<stop offset="1" stop-color="#BEC0C2"/>
</radialGradient>
<radialGradient id="paint82_radial_384_3448" cx="0" cy="0" r="1" gradientUnits="userSpaceOnUse" gradientTransform="translate(999 1019) rotate(75.1137) scale(613.076 564.816)">
<stop/>
<stop offset="1" stop-color="#BEC0C2"/>
</radialGradient>
<radialGradient id="paint83_radial_384_3448" cx="0" cy="0" r="1" gradientUnits="userSpaceOnUse" gradientTransform="translate(999 1019) rotate(75.1137) scale(613.076 564.816)">
<stop/>
<stop offset="1" stop-color="#BEC0C2"/>
</radialGradient>
<radialGradient id="paint84_radial_384_3448" cx="0" cy="0" r="1" gradientUnits="userSpaceOnUse" gradientTransform="translate(999 1019) rotate(75.1137) scale(613.076 564.816)">
<stop/>
<stop offset="1" stop-color="#BEC0C2"/>
</radialGradient>
<radialGradient id="paint85_radial_384_3448" cx="0" cy="0" r="1" gradientUnits="userSpaceOnUse" gradientTransform="translate(999 1019) rotate(75.1137) scale(613.076 564.816)">
<stop/>
<stop offset="1" stop-color="#BEC0C2"/>
</radialGradient>
<radialGradient id="paint86_radial_384_3448" cx="0" cy="0" r="1" gradientUnits="userSpaceOnUse" gradientTransform="translate(999 1019) rotate(75.1137) scale(613.076 564.816)">
<stop/>
<stop offset="1" stop-color="#BEC0C2"/>
</radialGradient>
<radialGradient id="paint87_radial_384_3448" cx="0" cy="0" r="1" gradientUnits="userSpaceOnUse" gradientTransform="translate(999 1019) rotate(75.1137) scale(613.076 564.816)">
<stop/>
<stop offset="1" stop-color="#BEC0C2"/>
</radialGradient>
<radialGradient id="paint88_radial_384_3448" cx="0" cy="0" r="1" gradientUnits="userSpaceOnUse" gradientTransform="translate(999 1019) rotate(75.1137) scale(613.076 564.816)">
<stop/>
<stop offset="1" stop-color="#BEC0C2"/>
</radialGradient>
<radialGradient id="paint89_radial_384_3448" cx="0" cy="0" r="1" gradientUnits="userSpaceOnUse" gradientTransform="translate(999 1019) rotate(75.1137) scale(613.076 564.816)">
<stop/>
<stop offset="1" stop-color="#BEC0C2"/>
</radialGradient>
<radialGradient id="paint90_radial_384_3448" cx="0" cy="0" r="1" gradientUnits="userSpaceOnUse" gradientTransform="translate(999 1019) rotate(75.1137) scale(613.076 564.816)">
<stop/>
<stop offset="1" stop-color="#BEC0C2"/>
</radialGradient>
<radialGradient id="paint91_radial_384_3448" cx="0" cy="0" r="1" gradientUnits="userSpaceOnUse" gradientTransform="translate(999 1019) rotate(75.1137) scale(613.076 564.816)">
<stop/>
<stop offset="1" stop-color="#BEC0C2"/>
</radialGradient>
<radialGradient id="paint92_radial_384_3448" cx="0" cy="0" r="1" gradientUnits="userSpaceOnUse" gradientTransform="translate(999 1019) rotate(75.1137) scale(613.076 564.816)">
<stop/>
<stop offset="1" stop-color="#BEC0C2"/>
</radialGradient>
<radialGradient id="paint93_radial_384_3448" cx="0" cy="0" r="1" gradientUnits="userSpaceOnUse" gradientTransform="translate(999 1019) rotate(75.1137) scale(613.076 564.816)">
<stop/>
<stop offset="1" stop-color="#BEC0C2"/>
</radialGradient>
<radialGradient id="paint94_radial_384_3448" cx="0" cy="0" r="1" gradientUnits="userSpaceOnUse" gradientTransform="translate(999 1019) rotate(75.1137) scale(613.076 564.816)">
<stop/>
<stop offset="1" stop-color="#BEC0C2"/>
</radialGradient>
<radialGradient id="paint95_radial_384_3448" cx="0" cy="0" r="1" gradientUnits="userSpaceOnUse" gradientTransform="translate(999 1019) rotate(75.1137) scale(613.076 564.816)">
<stop/>
<stop offset="1" stop-color="#BEC0C2"/>
</radialGradient>
<radialGradient id="paint96_radial_384_3448" cx="0" cy="0" r="1" gradientUnits="userSpaceOnUse" gradientTransform="translate(999 1019) rotate(75.1137) scale(613.076 564.816)">
<stop/>
<stop offset="1" stop-color="#BEC0C2"/>
</radialGradient>
</defs>
</svg>
