<svg width="2530" height="1460" viewBox="0 0 2530 1460" fill="none" xmlns="http://www.w3.org/2000/svg">
<circle r="72.5557" transform="matrix(0.317039 0.682961 -1.18303 -0.183027 2140.32 725.557)" fill="#D9D9D9"/>
<circle r="72.5557" transform="matrix(0.317039 0.682961 -1.18303 -0.183027 2357.34 850.847)" fill="#D9D9D9"/>
<circle r="72.5557" transform="matrix(0.317039 0.682961 -1.18303 -0.183027 1055.17 99.1054)" fill="#D9D9D9"/>
<circle r="72.5557" transform="matrix(0.317039 0.682961 -1.18303 -0.183027 1923.29 600.267)" fill="#D9D9D9"/>
<circle r="72.5557" transform="matrix(0.317039 0.682961 -1.18303 -0.183027 1706.26 474.976)" fill="#D9D9D9"/>
<circle r="72.5557" transform="matrix(0.317039 0.682961 -1.18303 -0.183027 1489.23 349.686)" fill="#D9D9D9"/>
<circle r="72.5557" transform="matrix(0.317039 0.682961 -1.18303 -0.183027 1272.2 224.396)" fill="#D9D9D9"/>
<circle r="72.5557" transform="matrix(0.317039 0.682961 -1.18303 -0.183027 767.342 515.851)" fill="#D9D9D9"/>
<circle r="72.5557" transform="matrix(0.317039 0.682961 -1.18303 -0.183027 984.371 641.142)" fill="#D9D9D9"/>
<circle r="72.5557" transform="matrix(0.317039 0.682961 -1.18303 -0.183027 1201.4 766.432)" fill="#D9D9D9"/>
<circle r="72.5557" transform="matrix(0.317039 0.682961 -1.18303 -0.183027 1418.43 891.722)" fill="#D9D9D9"/>
<circle r="72.5557" transform="matrix(0.317039 0.682961 -1.18303 -0.183027 1635.45 1017.01)" fill="#D9D9D9"/>
<circle r="72.5557" transform="matrix(0.317039 0.682961 -1.18303 -0.183027 1852.48 1142.3)" fill="#D9D9D9"/>
<circle r="72.5557" transform="matrix(0.317039 0.682961 -1.18303 -0.183027 550.315 390.561)" fill="#D9D9D9"/>
<circle r="72.5557" transform="matrix(0.317039 0.682961 -1.18303 -0.183027 2014.1 798.421)" fill="#D9D9D9"/>
<circle r="72.5557" transform="matrix(0.317039 0.682961 -1.18303 -0.183027 2231.13 923.711)" fill="#D9D9D9"/>
<circle r="72.5557" transform="matrix(0.317039 0.682961 -1.18303 -0.183027 928.96 171.969)" fill="#D9D9D9"/>
<circle r="72.5557" transform="matrix(0.317039 0.682961 -1.18303 -0.183027 1797.07 673.131)" fill="#D9D9D9"/>
<circle r="72.5557" transform="matrix(0.317039 0.682961 -1.18303 -0.183027 1580.04 547.84)" fill="#D9D9D9"/>
<circle r="72.5557" transform="matrix(0.317039 0.682961 -1.18303 -0.183027 1363.02 422.55)" fill="#D9D9D9"/>
<circle r="72.5557" transform="matrix(0.317039 0.682961 -1.18303 -0.183027 1145.99 297.26)" fill="#D9D9D9"/>
<circle r="72.5557" transform="matrix(0.317039 0.682961 -1.18303 -0.183027 641.128 588.715)" fill="#D9D9D9"/>
<circle r="72.5557" transform="matrix(0.317039 0.682961 -1.18303 -0.183027 858.156 714.005)" fill="#D9D9D9"/>
<circle r="72.5557" transform="matrix(0.317039 0.682961 -1.18303 -0.183027 1075.18 839.296)" fill="#D9D9D9"/>
<circle r="72.5557" transform="matrix(0.317039 0.682961 -1.18303 -0.183027 1292.21 964.586)" fill="#D9D9D9"/>
<circle r="72.5557" transform="matrix(0.317039 0.682961 -1.18303 -0.183027 1509.24 1089.88)" fill="#D9D9D9"/>
<circle r="72.5557" transform="matrix(0.317039 0.682961 -1.18303 -0.183027 1726.27 1215.17)" fill="#D9D9D9"/>
<circle r="72.5557" transform="matrix(0.317039 0.682961 -1.18303 -0.183027 424.1 463.425)" fill="#D9D9D9"/>
<circle r="72.5557" transform="matrix(0.317039 0.682961 -1.18303 -0.183027 1887.88 871.285)" fill="#D9D9D9"/>
<circle r="72.5557" transform="matrix(0.317039 0.682961 -1.18303 -0.183027 2104.91 996.575)" fill="#D9D9D9"/>
<circle r="72.5557" transform="matrix(0.317039 0.682961 -1.18303 -0.183027 802.745 244.833)" fill="#D9D9D9"/>
<circle r="72.5557" transform="matrix(0.317039 0.682961 -1.18303 -0.183027 1670.86 745.994)" fill="#D9D9D9"/>
<circle r="72.5557" transform="matrix(0.317039 0.682961 -1.18303 -0.183027 1453.83 620.704)" fill="#D9D9D9"/>
<circle r="72.5557" transform="matrix(0.317039 0.682961 -1.18303 -0.183027 1236.8 495.414)" fill="#D9D9D9"/>
<circle r="72.5557" transform="matrix(0.317039 0.682961 -1.18303 -0.183027 1019.77 370.123)" fill="#D9D9D9"/>
<circle r="72.5557" transform="matrix(0.317039 0.682961 -1.18303 -0.183027 514.913 661.579)" fill="#D9D9D9"/>
<circle r="72.5557" transform="matrix(0.317039 0.682961 -1.18303 -0.183027 731.941 786.869)" fill="#D9D9D9"/>
<circle r="72.5557" transform="matrix(0.317039 0.682961 -1.18303 -0.183027 948.969 912.16)" fill="#D9D9D9"/>
<circle r="72.5557" transform="matrix(0.317039 0.682961 -1.18303 -0.183027 1166 1037.45)" fill="#D9D9D9"/>
<circle r="72.5557" transform="matrix(0.317039 0.682961 -1.18303 -0.183027 1383.03 1162.74)" fill="#D9D9D9"/>
<circle r="72.5557" transform="matrix(0.317039 0.682961 -1.18303 -0.183027 1600.05 1288.03)" fill="#D9D9D9"/>
<circle r="72.5557" transform="matrix(0.317039 0.682961 -1.18303 -0.183027 297.885 536.289)" fill="#D9D9D9"/>
<circle r="72.5557" transform="matrix(0.317039 0.682961 -1.18303 -0.183027 1761.67 944.149)" fill="#D9D9D9"/>
<circle r="72.5557" transform="matrix(0.317039 0.682961 -1.18303 -0.183027 1978.7 1069.44)" fill="#D9D9D9"/>
<circle r="72.5557" transform="matrix(0.317039 0.682961 -1.18303 -0.183027 676.53 317.697)" fill="#D9D9D9"/>
<circle r="72.5557" transform="matrix(0.317039 0.682961 -1.18303 -0.183027 1544.64 818.858)" fill="#D9D9D9"/>
<circle r="72.5557" transform="matrix(0.317039 0.682961 -1.18303 -0.183027 1327.61 693.568)" fill="#D9D9D9"/>
<circle r="72.5557" transform="matrix(0.317039 0.682961 -1.18303 -0.183027 1110.59 568.278)" fill="#D9D9D9"/>
<circle r="72.5557" transform="matrix(0.317039 0.682961 -1.18303 -0.183027 893.558 442.987)" fill="#D9D9D9"/>
<circle r="72.5557" transform="matrix(0.317039 0.682961 -1.18303 -0.183027 388.698 734.443)" fill="#D9D9D9"/>
<circle r="72.5557" transform="matrix(0.317039 0.682961 -1.18303 -0.183027 605.726 859.733)" fill="#D9D9D9"/>
<circle r="72.5557" transform="matrix(0.317039 0.682961 -1.18303 -0.183027 822.755 985.023)" fill="#D9D9D9"/>
<circle r="72.5557" transform="matrix(0.317039 0.682961 -1.18303 -0.183027 1039.78 1110.31)" fill="#D9D9D9"/>
<circle r="72.5557" transform="matrix(0.317039 0.682961 -1.18303 -0.183027 1256.81 1235.6)" fill="#D9D9D9"/>
<circle r="72.5557" transform="matrix(0.317039 0.682961 -1.18303 -0.183027 1473.84 1360.89)" fill="#D9D9D9"/>
<circle r="72.5557" transform="matrix(0.317039 0.682961 -1.18303 -0.183027 171.67 609.153)" fill="#D9D9D9"/>
</svg>
