<svg width="24" height="24" viewBox="0 0 24 24" fill="none" xmlns="http://www.w3.org/2000/svg">
<g clip-path="url(#clip0_1112_877)">
<path fill-rule="evenodd" clip-rule="evenodd" d="M10.9979 1.31025L7.00013 6.50004L11.0065 12.109L12.0001 13.5L12.9937 12.109L17.0001 6.50004L13.0083 1.31056L12.506 0.657569L12.0037 0.0045582L11.5008 0.657373L10.9979 1.31025ZM12.0025 2.61625L8.99861 6.5158L12.0001 10.7179L15.0019 6.51549L12.0025 2.61625ZM3.63524 11.9336L7.69449 9.90132C8.07776 9.70944 8.11901 9.37452 7.78663 9.15326C7.45425 8.932 6.8741 8.90818 6.49084 9.10007L2.28257 11.2069C1.5578 11.5698 1.51833 12.2114 2.1967 12.603L4.91856 14.1743L2.22242 15.6191C1.53547 15.9873 1.51537 16.6111 2.17813 16.9937L10.9563 22.0613C11.602 22.4341 12.6489 22.4341 13.2946 22.0613L22.0687 16.996C22.7349 16.6114 22.7106 15.9837 22.0153 15.6166L19.3088 14.188L22.0504 12.6052C22.7319 12.2118 22.6885 11.5666 21.9562 11.2049L17.69 9.09775C17.3045 8.90735 16.7246 8.93341 16.3948 9.15595C16.065 9.37849 16.1101 9.71324 16.4956 9.90364L20.611 11.9363L12.1255 16.835L3.63524 11.9336ZM18.0084 14.9387L13.2946 17.6599C12.6489 18.0327 11.602 18.0327 10.9563 17.6599L6.21853 14.9248L3.61203 16.3216L12.1255 21.2364L20.6338 16.3245L18.0084 14.9387Z" fill="black"/>
</g>
<defs>
<clipPath id="clip0_1112_877">
<rect width="24" height="24" fill="white"/>
</clipPath>
</defs>
</svg>
